%TF.GenerationSoftware,KiCad,Pcbnew,(6.0.9)*%
%TF.CreationDate,2024-03-30T18:15:30+01:00*%
%TF.ProjectId,HBW-IO-4-FM_Platine2,4842572d-494f-42d3-942d-464d5f506c61,rev?*%
%TF.SameCoordinates,Original*%
%TF.FileFunction,Soldermask,Top*%
%TF.FilePolarity,Negative*%
%FSLAX46Y46*%
G04 Gerber Fmt 4.6, Leading zero omitted, Abs format (unit mm)*
G04 Created by KiCad (PCBNEW (6.0.9)) date 2024-03-30 18:15:30*
%MOMM*%
%LPD*%
G01*
G04 APERTURE LIST*
G04 Aperture macros list*
%AMRoundRect*
0 Rectangle with rounded corners*
0 $1 Rounding radius*
0 $2 $3 $4 $5 $6 $7 $8 $9 X,Y pos of 4 corners*
0 Add a 4 corners polygon primitive as box body*
4,1,4,$2,$3,$4,$5,$6,$7,$8,$9,$2,$3,0*
0 Add four circle primitives for the rounded corners*
1,1,$1+$1,$2,$3*
1,1,$1+$1,$4,$5*
1,1,$1+$1,$6,$7*
1,1,$1+$1,$8,$9*
0 Add four rect primitives between the rounded corners*
20,1,$1+$1,$2,$3,$4,$5,0*
20,1,$1+$1,$4,$5,$6,$7,0*
20,1,$1+$1,$6,$7,$8,$9,0*
20,1,$1+$1,$8,$9,$2,$3,0*%
%AMRotRect*
0 Rectangle, with rotation*
0 The origin of the aperture is its center*
0 $1 length*
0 $2 width*
0 $3 Rotation angle, in degrees counterclockwise*
0 Add horizontal line*
21,1,$1,$2,0,0,$3*%
G04 Aperture macros list end*
%ADD10RoundRect,0.250000X-1.025000X0.875000X-1.025000X-0.875000X1.025000X-0.875000X1.025000X0.875000X0*%
%ADD11R,3.500000X1.800000*%
%ADD12RoundRect,0.250000X-0.450000X0.350000X-0.450000X-0.350000X0.450000X-0.350000X0.450000X0.350000X0*%
%ADD13RoundRect,0.250000X-0.550000X1.250000X-0.550000X-1.250000X0.550000X-1.250000X0.550000X1.250000X0*%
%ADD14O,1.700000X1.700000*%
%ADD15RoundRect,0.250000X-0.412500X-1.100000X0.412500X-1.100000X0.412500X1.100000X-0.412500X1.100000X0*%
%ADD16RoundRect,0.150000X0.150000X-0.825000X0.150000X0.825000X-0.150000X0.825000X-0.150000X-0.825000X0*%
%ADD17RoundRect,0.250000X-1.100000X0.412500X-1.100000X-0.412500X1.100000X-0.412500X1.100000X0.412500X0*%
%ADD18RoundRect,0.250000X0.350000X0.450000X-0.350000X0.450000X-0.350000X-0.450000X0.350000X-0.450000X0*%
%ADD19R,1.200000X3.700000*%
%ADD20RoundRect,0.250000X0.475000X-0.337500X0.475000X0.337500X-0.475000X0.337500X-0.475000X-0.337500X0*%
%ADD21O,2.000000X2.000000*%
%ADD22RotRect,2.020000X2.950000X20.000000*%
%ADD23R,2.700000X1.500000*%
%ADD24RoundRect,0.250000X-0.475000X0.337500X-0.475000X-0.337500X0.475000X-0.337500X0.475000X0.337500X0*%
G04 APERTURE END LIST*
D10*
%TO.C,C4*%
X148600000Y-92750000D03*
X148600000Y-99150000D03*
%TD*%
D11*
%TO.C,D2*%
X134600000Y-98150000D03*
X129600000Y-98150000D03*
%TD*%
D12*
%TO.C,R2*%
X145200000Y-86250000D03*
X145200000Y-88250000D03*
%TD*%
D13*
%TO.C,C6*%
X135900000Y-89550000D03*
X135900000Y-93950000D03*
%TD*%
D14*
%TO.C,J1*%
X127900000Y-91660000D03*
X127900000Y-94200000D03*
%TD*%
D15*
%TO.C,C5*%
X135575000Y-85650000D03*
X138700000Y-85650000D03*
%TD*%
D16*
%TO.C,IC1*%
X139595000Y-93425000D03*
X140865000Y-93425000D03*
X142135000Y-93425000D03*
X143405000Y-93425000D03*
X143405000Y-88475000D03*
X142135000Y-88475000D03*
X140865000Y-88475000D03*
X139595000Y-88475000D03*
%TD*%
D17*
%TO.C,C2*%
X143100000Y-96950000D03*
X143100000Y-100075000D03*
%TD*%
D18*
%TO.C,R3*%
X142600000Y-85650000D03*
X140600000Y-85650000D03*
%TD*%
D19*
%TO.C,L1*%
X140600000Y-96950000D03*
X137800000Y-96950000D03*
%TD*%
D12*
%TO.C,R1*%
X147300000Y-88300000D03*
X147300000Y-90300000D03*
%TD*%
D20*
%TO.C,C3*%
X149400000Y-90337500D03*
X149400000Y-88262500D03*
%TD*%
D21*
%TO.C,ST3*%
X147400000Y-85750000D03*
%TD*%
D22*
%TO.C,SI1*%
X128101536Y-87760100D03*
X132800000Y-86050000D03*
%TD*%
D23*
%TO.C,D1*%
X131400000Y-95350000D03*
X131400000Y-90550000D03*
%TD*%
D24*
%TO.C,C1*%
X145200000Y-90300000D03*
X145200000Y-92375000D03*
%TD*%
D21*
%TO.C,ST4*%
X139200000Y-101550000D03*
%TD*%
M02*
