%TF.GenerationSoftware,KiCad,Pcbnew,(6.0.9)*%
%TF.CreationDate,2024-03-30T18:15:30+01:00*%
%TF.ProjectId,HBW-IO-4-FM_Platine2,4842572d-494f-42d3-942d-464d5f506c61,rev?*%
%TF.SameCoordinates,Original*%
%TF.FileFunction,Copper,L2,Bot*%
%TF.FilePolarity,Positive*%
%FSLAX46Y46*%
G04 Gerber Fmt 4.6, Leading zero omitted, Abs format (unit mm)*
G04 Created by KiCad (PCBNEW (6.0.9)) date 2024-03-30 18:15:30*
%MOMM*%
%LPD*%
G01*
G04 APERTURE LIST*
%TA.AperFunction,ComponentPad*%
%ADD10O,1.700000X1.700000*%
%TD*%
%TA.AperFunction,ComponentPad*%
%ADD11O,2.000000X2.000000*%
%TD*%
%TA.AperFunction,ViaPad*%
%ADD12C,0.600000*%
%TD*%
G04 APERTURE END LIST*
D10*
%TO.P,J1,1,Pin_1*%
%TO.N,/+24V*%
X127900000Y-91660000D03*
%TO.P,J1,2,Pin_2*%
%TO.N,/GND*%
X127900000Y-94200000D03*
%TD*%
D11*
%TO.P,ST3,1,Pin_1*%
%TO.N,/VCC*%
X147400000Y-85750000D03*
%TD*%
%TO.P,ST4,1,Pin_1*%
%TO.N,/GND*%
X139200000Y-101550000D03*
%TD*%
D12*
%TO.N,/GND*%
X145000000Y-94000000D03*
X132250000Y-101600000D03*
X138000000Y-89000000D03*
X146000000Y-101550000D03*
X138000000Y-91500000D03*
X137137500Y-85650000D03*
X148600000Y-95950000D03*
X143500000Y-101600000D03*
X146000000Y-99000000D03*
X138000000Y-94000000D03*
X134550000Y-101600000D03*
X130000000Y-100500000D03*
X134000000Y-94000000D03*
%TD*%
%TA.AperFunction,Conductor*%
%TO.N,/GND*%
G36*
X147505304Y-83778502D02*
G01*
X147526278Y-83795405D01*
X147780886Y-84050013D01*
X147814912Y-84112325D01*
X147809847Y-84183140D01*
X147767300Y-84239976D01*
X147700780Y-84264787D01*
X147662376Y-84261626D01*
X147641533Y-84256622D01*
X147641525Y-84256621D01*
X147636711Y-84255465D01*
X147400000Y-84236835D01*
X147163289Y-84255465D01*
X147158482Y-84256619D01*
X147158476Y-84256620D01*
X147012609Y-84291640D01*
X146932406Y-84310895D01*
X146927835Y-84312788D01*
X146927833Y-84312789D01*
X146717611Y-84399865D01*
X146717607Y-84399867D01*
X146713037Y-84401760D01*
X146708817Y-84404346D01*
X146514798Y-84523241D01*
X146514792Y-84523245D01*
X146510584Y-84525824D01*
X146330031Y-84680031D01*
X146175824Y-84860584D01*
X146173245Y-84864792D01*
X146173241Y-84864798D01*
X146124040Y-84945087D01*
X146051760Y-85063037D01*
X145960895Y-85282406D01*
X145959740Y-85287218D01*
X145906623Y-85508467D01*
X145905465Y-85513289D01*
X145886835Y-85750000D01*
X145905465Y-85986711D01*
X145960895Y-86217594D01*
X145962788Y-86222165D01*
X145962789Y-86222167D01*
X146043183Y-86416255D01*
X146051760Y-86436963D01*
X146054346Y-86441183D01*
X146173241Y-86635202D01*
X146173245Y-86635208D01*
X146175824Y-86639416D01*
X146330031Y-86819969D01*
X146510584Y-86974176D01*
X146514792Y-86976755D01*
X146514798Y-86976759D01*
X146708817Y-87095654D01*
X146713037Y-87098240D01*
X146717607Y-87100133D01*
X146717611Y-87100135D01*
X146927833Y-87187211D01*
X146932406Y-87189105D01*
X147012609Y-87208360D01*
X147158476Y-87243380D01*
X147158482Y-87243381D01*
X147163289Y-87244535D01*
X147400000Y-87263165D01*
X147636711Y-87244535D01*
X147641518Y-87243381D01*
X147641524Y-87243380D01*
X147787391Y-87208360D01*
X147867594Y-87189105D01*
X147872167Y-87187211D01*
X148082389Y-87100135D01*
X148082393Y-87100133D01*
X148086963Y-87098240D01*
X148091183Y-87095654D01*
X148285202Y-86976759D01*
X148285208Y-86976755D01*
X148289416Y-86974176D01*
X148469969Y-86819969D01*
X148624176Y-86639416D01*
X148626755Y-86635208D01*
X148626759Y-86635202D01*
X148745654Y-86441183D01*
X148748240Y-86436963D01*
X148756818Y-86416255D01*
X148837211Y-86222167D01*
X148837212Y-86222165D01*
X148839105Y-86217594D01*
X148894535Y-85986711D01*
X148913165Y-85750000D01*
X148894535Y-85513289D01*
X148893379Y-85508475D01*
X148893378Y-85508467D01*
X148888374Y-85487624D01*
X148891920Y-85416716D01*
X148933239Y-85358982D01*
X148999213Y-85332751D01*
X149068894Y-85346353D01*
X149099986Y-85369113D01*
X149943654Y-86212782D01*
X150654595Y-86923723D01*
X150688621Y-86986035D01*
X150691500Y-87012818D01*
X150691500Y-99487182D01*
X150671498Y-99555303D01*
X150654595Y-99576277D01*
X147526278Y-102704595D01*
X147463966Y-102738621D01*
X147437183Y-102741500D01*
X140438829Y-102741500D01*
X140370708Y-102721498D01*
X140324215Y-102667842D01*
X140314111Y-102597568D01*
X140343018Y-102533669D01*
X140420557Y-102442883D01*
X140426357Y-102434899D01*
X140545205Y-102240958D01*
X140549687Y-102232163D01*
X140636736Y-102022008D01*
X140639782Y-102012634D01*
X140685642Y-101821615D01*
X140684937Y-101807531D01*
X140676056Y-101804000D01*
X137728244Y-101804000D01*
X137714713Y-101807973D01*
X137713353Y-101817431D01*
X137760218Y-102012634D01*
X137763264Y-102022008D01*
X137850313Y-102232163D01*
X137854795Y-102240958D01*
X137973643Y-102434899D01*
X137979443Y-102442883D01*
X138056982Y-102533669D01*
X138086013Y-102598459D01*
X138075408Y-102668659D01*
X138028533Y-102721981D01*
X137961171Y-102741500D01*
X129962818Y-102741500D01*
X129894697Y-102721498D01*
X129873723Y-102704595D01*
X128447513Y-101278385D01*
X137714358Y-101278385D01*
X137715063Y-101292469D01*
X137723944Y-101296000D01*
X138927885Y-101296000D01*
X138943124Y-101291525D01*
X138944329Y-101290135D01*
X138946000Y-101282452D01*
X138946000Y-101277885D01*
X139454000Y-101277885D01*
X139458475Y-101293124D01*
X139459865Y-101294329D01*
X139467548Y-101296000D01*
X140671756Y-101296000D01*
X140685287Y-101292027D01*
X140686647Y-101282569D01*
X140639782Y-101087366D01*
X140636736Y-101077992D01*
X140549687Y-100867837D01*
X140545205Y-100859042D01*
X140426357Y-100665101D01*
X140420557Y-100657117D01*
X140272822Y-100484142D01*
X140265858Y-100477178D01*
X140092883Y-100329443D01*
X140084899Y-100323643D01*
X139890958Y-100204795D01*
X139882163Y-100200313D01*
X139672008Y-100113264D01*
X139662634Y-100110218D01*
X139471615Y-100064358D01*
X139457531Y-100065063D01*
X139454000Y-100073944D01*
X139454000Y-101277885D01*
X138946000Y-101277885D01*
X138946000Y-100078244D01*
X138942027Y-100064713D01*
X138932569Y-100063353D01*
X138737366Y-100110218D01*
X138727992Y-100113264D01*
X138517837Y-100200313D01*
X138509042Y-100204795D01*
X138315101Y-100323643D01*
X138307117Y-100329443D01*
X138134142Y-100477178D01*
X138127178Y-100484142D01*
X137979443Y-100657117D01*
X137973643Y-100665101D01*
X137854795Y-100859042D01*
X137850313Y-100867837D01*
X137763264Y-101077992D01*
X137760218Y-101087366D01*
X137714358Y-101278385D01*
X128447513Y-101278385D01*
X126745405Y-99576278D01*
X126711379Y-99513966D01*
X126708500Y-99487183D01*
X126708500Y-95236608D01*
X126728502Y-95168487D01*
X126782158Y-95121994D01*
X126852432Y-95111890D01*
X126917012Y-95141384D01*
X126929737Y-95154110D01*
X126943218Y-95169673D01*
X126950580Y-95176883D01*
X127114434Y-95312916D01*
X127122881Y-95318831D01*
X127306756Y-95426279D01*
X127316042Y-95430729D01*
X127515001Y-95506703D01*
X127524899Y-95509579D01*
X127628250Y-95530606D01*
X127642299Y-95529410D01*
X127646000Y-95519065D01*
X127646000Y-95518517D01*
X128154000Y-95518517D01*
X128158064Y-95532359D01*
X128171478Y-95534393D01*
X128178184Y-95533534D01*
X128188262Y-95531392D01*
X128392255Y-95470191D01*
X128401842Y-95466433D01*
X128593095Y-95372739D01*
X128601945Y-95367464D01*
X128775328Y-95243792D01*
X128783200Y-95237139D01*
X128934052Y-95086812D01*
X128940730Y-95078965D01*
X129065003Y-94906020D01*
X129070313Y-94897183D01*
X129164670Y-94706267D01*
X129168469Y-94696672D01*
X129230377Y-94492910D01*
X129232555Y-94482837D01*
X129233986Y-94471962D01*
X129231775Y-94457778D01*
X129218617Y-94454000D01*
X128172115Y-94454000D01*
X128156876Y-94458475D01*
X128155671Y-94459865D01*
X128154000Y-94467548D01*
X128154000Y-95518517D01*
X127646000Y-95518517D01*
X127646000Y-94072000D01*
X127666002Y-94003879D01*
X127719658Y-93957386D01*
X127772000Y-93946000D01*
X129218344Y-93946000D01*
X129231875Y-93942027D01*
X129233180Y-93932947D01*
X129191214Y-93765875D01*
X129187894Y-93756124D01*
X129102972Y-93560814D01*
X129098105Y-93551739D01*
X128982426Y-93372926D01*
X128976136Y-93364757D01*
X128832806Y-93207240D01*
X128825273Y-93200215D01*
X128658139Y-93068222D01*
X128649556Y-93062520D01*
X128612602Y-93042120D01*
X128562631Y-92991687D01*
X128547859Y-92922245D01*
X128572975Y-92855839D01*
X128600327Y-92829232D01*
X128623797Y-92812491D01*
X128779860Y-92701173D01*
X128783674Y-92697373D01*
X128879231Y-92602149D01*
X128938096Y-92543489D01*
X129068453Y-92362077D01*
X129091328Y-92315794D01*
X129165136Y-92166453D01*
X129165137Y-92166451D01*
X129167430Y-92161811D01*
X129232370Y-91948069D01*
X129261529Y-91726590D01*
X129263156Y-91660000D01*
X129244852Y-91437361D01*
X129190431Y-91220702D01*
X129101354Y-91015840D01*
X128980014Y-90828277D01*
X128829670Y-90663051D01*
X128825619Y-90659852D01*
X128825615Y-90659848D01*
X128658414Y-90527800D01*
X128658410Y-90527798D01*
X128654359Y-90524598D01*
X128458789Y-90416638D01*
X128453920Y-90414914D01*
X128453916Y-90414912D01*
X128253087Y-90343795D01*
X128253083Y-90343794D01*
X128248212Y-90342069D01*
X128243119Y-90341162D01*
X128243116Y-90341161D01*
X128033373Y-90303800D01*
X128033367Y-90303799D01*
X128028284Y-90302894D01*
X127954452Y-90301992D01*
X127810081Y-90300228D01*
X127810079Y-90300228D01*
X127804911Y-90300165D01*
X127584091Y-90333955D01*
X127371756Y-90403357D01*
X127173607Y-90506507D01*
X127169474Y-90509610D01*
X127169471Y-90509612D01*
X126999100Y-90637530D01*
X126994965Y-90640635D01*
X126991393Y-90644373D01*
X126925593Y-90713228D01*
X126864069Y-90748657D01*
X126793157Y-90745200D01*
X126735371Y-90703954D01*
X126709057Y-90638013D01*
X126708500Y-90626176D01*
X126708500Y-87012817D01*
X126728502Y-86944696D01*
X126745405Y-86923722D01*
X129873723Y-83795405D01*
X129936035Y-83761379D01*
X129962818Y-83758500D01*
X147437183Y-83758500D01*
X147505304Y-83778502D01*
G37*
%TD.AperFunction*%
%TD*%
M02*
