%TF.GenerationSoftware,KiCad,Pcbnew,(6.0.9)*%
%TF.CreationDate,2024-03-30T18:15:30+01:00*%
%TF.ProjectId,HBW-IO-4-FM_Platine2,4842572d-494f-42d3-942d-464d5f506c61,rev?*%
%TF.SameCoordinates,Original*%
%TF.FileFunction,Legend,Top*%
%TF.FilePolarity,Positive*%
%FSLAX46Y46*%
G04 Gerber Fmt 4.6, Leading zero omitted, Abs format (unit mm)*
G04 Created by KiCad (PCBNEW (6.0.9)) date 2024-03-30 18:15:30*
%MOMM*%
%LPD*%
G01*
G04 APERTURE LIST*
%ADD10C,0.150000*%
%ADD11C,0.254000*%
%ADD12C,0.120000*%
%ADD13C,0.200000*%
G04 APERTURE END LIST*
D10*
%TO.C,C4*%
X148957142Y-96166666D02*
X149004761Y-96214285D01*
X149052380Y-96357142D01*
X149052380Y-96452380D01*
X149004761Y-96595238D01*
X148909523Y-96690476D01*
X148814285Y-96738095D01*
X148623809Y-96785714D01*
X148480952Y-96785714D01*
X148290476Y-96738095D01*
X148195238Y-96690476D01*
X148100000Y-96595238D01*
X148052380Y-96452380D01*
X148052380Y-96357142D01*
X148100000Y-96214285D01*
X148147619Y-96166666D01*
X148385714Y-95309523D02*
X149052380Y-95309523D01*
X148004761Y-95547619D02*
X148719047Y-95785714D01*
X148719047Y-95166666D01*
%TO.C,D2*%
X131361904Y-101102380D02*
X131361904Y-100102380D01*
X131600000Y-100102380D01*
X131742857Y-100150000D01*
X131838095Y-100245238D01*
X131885714Y-100340476D01*
X131933333Y-100530952D01*
X131933333Y-100673809D01*
X131885714Y-100864285D01*
X131838095Y-100959523D01*
X131742857Y-101054761D01*
X131600000Y-101102380D01*
X131361904Y-101102380D01*
X132314285Y-100197619D02*
X132361904Y-100150000D01*
X132457142Y-100102380D01*
X132695238Y-100102380D01*
X132790476Y-100150000D01*
X132838095Y-100197619D01*
X132885714Y-100292857D01*
X132885714Y-100388095D01*
X132838095Y-100530952D01*
X132266666Y-101102380D01*
X132885714Y-101102380D01*
%TO.C,R2*%
X145602380Y-84666666D02*
X145126190Y-85000000D01*
X145602380Y-85238095D02*
X144602380Y-85238095D01*
X144602380Y-84857142D01*
X144650000Y-84761904D01*
X144697619Y-84714285D01*
X144792857Y-84666666D01*
X144935714Y-84666666D01*
X145030952Y-84714285D01*
X145078571Y-84761904D01*
X145126190Y-84857142D01*
X145126190Y-85238095D01*
X144697619Y-84285714D02*
X144650000Y-84238095D01*
X144602380Y-84142857D01*
X144602380Y-83904761D01*
X144650000Y-83809523D01*
X144697619Y-83761904D01*
X144792857Y-83714285D01*
X144888095Y-83714285D01*
X145030952Y-83761904D01*
X145602380Y-84333333D01*
X145602380Y-83714285D01*
%TO.C,C6*%
X133733333Y-95657142D02*
X133685714Y-95704761D01*
X133542857Y-95752380D01*
X133447619Y-95752380D01*
X133304761Y-95704761D01*
X133209523Y-95609523D01*
X133161904Y-95514285D01*
X133114285Y-95323809D01*
X133114285Y-95180952D01*
X133161904Y-94990476D01*
X133209523Y-94895238D01*
X133304761Y-94800000D01*
X133447619Y-94752380D01*
X133542857Y-94752380D01*
X133685714Y-94800000D01*
X133733333Y-94847619D01*
X134590476Y-94752380D02*
X134400000Y-94752380D01*
X134304761Y-94800000D01*
X134257142Y-94847619D01*
X134161904Y-94990476D01*
X134114285Y-95180952D01*
X134114285Y-95561904D01*
X134161904Y-95657142D01*
X134209523Y-95704761D01*
X134304761Y-95752380D01*
X134495238Y-95752380D01*
X134590476Y-95704761D01*
X134638095Y-95657142D01*
X134685714Y-95561904D01*
X134685714Y-95323809D01*
X134638095Y-95228571D01*
X134590476Y-95180952D01*
X134495238Y-95133333D01*
X134304761Y-95133333D01*
X134209523Y-95180952D01*
X134161904Y-95228571D01*
X134114285Y-95323809D01*
%TO.C,C5*%
X140083333Y-84357142D02*
X140035714Y-84404761D01*
X139892857Y-84452380D01*
X139797619Y-84452380D01*
X139654761Y-84404761D01*
X139559523Y-84309523D01*
X139511904Y-84214285D01*
X139464285Y-84023809D01*
X139464285Y-83880952D01*
X139511904Y-83690476D01*
X139559523Y-83595238D01*
X139654761Y-83500000D01*
X139797619Y-83452380D01*
X139892857Y-83452380D01*
X140035714Y-83500000D01*
X140083333Y-83547619D01*
X140988095Y-83452380D02*
X140511904Y-83452380D01*
X140464285Y-83928571D01*
X140511904Y-83880952D01*
X140607142Y-83833333D01*
X140845238Y-83833333D01*
X140940476Y-83880952D01*
X140988095Y-83928571D01*
X141035714Y-84023809D01*
X141035714Y-84261904D01*
X140988095Y-84357142D01*
X140940476Y-84404761D01*
X140845238Y-84452380D01*
X140607142Y-84452380D01*
X140511904Y-84404761D01*
X140464285Y-84357142D01*
%TO.C,IC1*%
X141952380Y-91976190D02*
X140952380Y-91976190D01*
X141857142Y-90928571D02*
X141904761Y-90976190D01*
X141952380Y-91119047D01*
X141952380Y-91214285D01*
X141904761Y-91357142D01*
X141809523Y-91452380D01*
X141714285Y-91500000D01*
X141523809Y-91547619D01*
X141380952Y-91547619D01*
X141190476Y-91500000D01*
X141095238Y-91452380D01*
X141000000Y-91357142D01*
X140952380Y-91214285D01*
X140952380Y-91119047D01*
X141000000Y-90976190D01*
X141047619Y-90928571D01*
X141952380Y-89976190D02*
X141952380Y-90547619D01*
X141952380Y-90261904D02*
X140952380Y-90261904D01*
X141095238Y-90357142D01*
X141190476Y-90452380D01*
X141238095Y-90547619D01*
%TO.C,C2*%
X145857142Y-98666666D02*
X145904761Y-98714285D01*
X145952380Y-98857142D01*
X145952380Y-98952380D01*
X145904761Y-99095238D01*
X145809523Y-99190476D01*
X145714285Y-99238095D01*
X145523809Y-99285714D01*
X145380952Y-99285714D01*
X145190476Y-99238095D01*
X145095238Y-99190476D01*
X145000000Y-99095238D01*
X144952380Y-98952380D01*
X144952380Y-98857142D01*
X145000000Y-98714285D01*
X145047619Y-98666666D01*
X145047619Y-98285714D02*
X145000000Y-98238095D01*
X144952380Y-98142857D01*
X144952380Y-97904761D01*
X145000000Y-97809523D01*
X145047619Y-97761904D01*
X145142857Y-97714285D01*
X145238095Y-97714285D01*
X145380952Y-97761904D01*
X145952380Y-98333333D01*
X145952380Y-97714285D01*
%TO.C,R3*%
X142633333Y-84452380D02*
X142300000Y-83976190D01*
X142061904Y-84452380D02*
X142061904Y-83452380D01*
X142442857Y-83452380D01*
X142538095Y-83500000D01*
X142585714Y-83547619D01*
X142633333Y-83642857D01*
X142633333Y-83785714D01*
X142585714Y-83880952D01*
X142538095Y-83928571D01*
X142442857Y-83976190D01*
X142061904Y-83976190D01*
X142966666Y-83452380D02*
X143585714Y-83452380D01*
X143252380Y-83833333D01*
X143395238Y-83833333D01*
X143490476Y-83880952D01*
X143538095Y-83928571D01*
X143585714Y-84023809D01*
X143585714Y-84261904D01*
X143538095Y-84357142D01*
X143490476Y-84404761D01*
X143395238Y-84452380D01*
X143109523Y-84452380D01*
X143014285Y-84404761D01*
X142966666Y-84357142D01*
%TO.C,L1*%
X139033333Y-97452380D02*
X138557142Y-97452380D01*
X138557142Y-96452380D01*
X139890476Y-97452380D02*
X139319047Y-97452380D01*
X139604761Y-97452380D02*
X139604761Y-96452380D01*
X139509523Y-96595238D01*
X139414285Y-96690476D01*
X139319047Y-96738095D01*
%TO.C,R1*%
X147152380Y-92066666D02*
X146676190Y-92400000D01*
X147152380Y-92638095D02*
X146152380Y-92638095D01*
X146152380Y-92257142D01*
X146200000Y-92161904D01*
X146247619Y-92114285D01*
X146342857Y-92066666D01*
X146485714Y-92066666D01*
X146580952Y-92114285D01*
X146628571Y-92161904D01*
X146676190Y-92257142D01*
X146676190Y-92638095D01*
X147152380Y-91114285D02*
X147152380Y-91685714D01*
X147152380Y-91400000D02*
X146152380Y-91400000D01*
X146295238Y-91495238D01*
X146390476Y-91590476D01*
X146438095Y-91685714D01*
%TO.C,C3*%
X149633333Y-87157142D02*
X149585714Y-87204761D01*
X149442857Y-87252380D01*
X149347619Y-87252380D01*
X149204761Y-87204761D01*
X149109523Y-87109523D01*
X149061904Y-87014285D01*
X149014285Y-86823809D01*
X149014285Y-86680952D01*
X149061904Y-86490476D01*
X149109523Y-86395238D01*
X149204761Y-86300000D01*
X149347619Y-86252380D01*
X149442857Y-86252380D01*
X149585714Y-86300000D01*
X149633333Y-86347619D01*
X149966666Y-86252380D02*
X150585714Y-86252380D01*
X150252380Y-86633333D01*
X150395238Y-86633333D01*
X150490476Y-86680952D01*
X150538095Y-86728571D01*
X150585714Y-86823809D01*
X150585714Y-87061904D01*
X150538095Y-87157142D01*
X150490476Y-87204761D01*
X150395238Y-87252380D01*
X150109523Y-87252380D01*
X150014285Y-87204761D01*
X149966666Y-87157142D01*
D11*
%TO.C,SI1*%
X129433173Y-87822462D02*
X129624344Y-87817239D01*
X129908489Y-87713818D01*
X130001463Y-87615621D01*
X130037608Y-87538108D01*
X130053069Y-87403766D01*
X130011700Y-87290108D01*
X129913503Y-87197134D01*
X129835990Y-87160989D01*
X129701648Y-87145528D01*
X129453648Y-87171435D01*
X129319306Y-87155974D01*
X129241793Y-87119829D01*
X129143595Y-87026855D01*
X129102227Y-86913197D01*
X129117688Y-86778855D01*
X129153833Y-86701342D01*
X129246807Y-86603145D01*
X129530952Y-86499725D01*
X129722123Y-86494501D01*
X130647266Y-87444925D02*
X130212901Y-86251516D01*
X131840676Y-87010560D02*
X131158727Y-87258769D01*
X131499702Y-87134664D02*
X131065336Y-85941255D01*
X131013730Y-86153110D01*
X130941440Y-86308136D01*
X130848466Y-86406333D01*
D10*
%TO.C,D1*%
X131861904Y-89352380D02*
X131861904Y-88352380D01*
X132100000Y-88352380D01*
X132242857Y-88400000D01*
X132338095Y-88495238D01*
X132385714Y-88590476D01*
X132433333Y-88780952D01*
X132433333Y-88923809D01*
X132385714Y-89114285D01*
X132338095Y-89209523D01*
X132242857Y-89304761D01*
X132100000Y-89352380D01*
X131861904Y-89352380D01*
X133385714Y-89352380D02*
X132814285Y-89352380D01*
X133100000Y-89352380D02*
X133100000Y-88352380D01*
X133004761Y-88495238D01*
X132909523Y-88590476D01*
X132814285Y-88638095D01*
%TO.C,C1*%
X145557142Y-94366666D02*
X145604761Y-94414285D01*
X145652380Y-94557142D01*
X145652380Y-94652380D01*
X145604761Y-94795238D01*
X145509523Y-94890476D01*
X145414285Y-94938095D01*
X145223809Y-94985714D01*
X145080952Y-94985714D01*
X144890476Y-94938095D01*
X144795238Y-94890476D01*
X144700000Y-94795238D01*
X144652380Y-94652380D01*
X144652380Y-94557142D01*
X144700000Y-94414285D01*
X144747619Y-94366666D01*
X145652380Y-93414285D02*
X145652380Y-93985714D01*
X145652380Y-93700000D02*
X144652380Y-93700000D01*
X144795238Y-93795238D01*
X144890476Y-93890476D01*
X144938095Y-93985714D01*
D12*
%TO.C,C4*%
X146340000Y-91365000D02*
X146340000Y-99600000D01*
X150860000Y-91365000D02*
X146340000Y-91365000D01*
X150860000Y-99600000D02*
X150860000Y-91365000D01*
%TO.C,D2*%
X136500000Y-96500000D02*
X129600000Y-96500000D01*
X136500000Y-99800000D02*
X136500000Y-96500000D01*
X136500000Y-99800000D02*
X129600000Y-99800000D01*
%TO.C,R2*%
X145935000Y-87022936D02*
X145935000Y-87477064D01*
X144465000Y-87022936D02*
X144465000Y-87477064D01*
%TO.C,C6*%
X137585000Y-88125000D02*
X137585000Y-88750000D01*
X133140000Y-94510000D02*
X134840000Y-94510000D01*
X138660000Y-90054437D02*
X138660000Y-94510000D01*
X134204437Y-88990000D02*
X134840000Y-88990000D01*
X137595563Y-88990000D02*
X138660000Y-90054437D01*
X134204437Y-88990000D02*
X133140000Y-90054437D01*
X137595563Y-88990000D02*
X136960000Y-88990000D01*
X137897500Y-88437500D02*
X137272500Y-88437500D01*
X133140000Y-90054437D02*
X133140000Y-94510000D01*
X138660000Y-94510000D02*
X136960000Y-94510000D01*
%TO.C,J1*%
X126570000Y-90330000D02*
X127900000Y-90330000D01*
X126570000Y-91660000D02*
X126570000Y-90330000D01*
X126570000Y-92930000D02*
X126570000Y-95530000D01*
X126570000Y-95530000D02*
X129230000Y-95530000D01*
X126570000Y-92930000D02*
X129230000Y-92930000D01*
X129230000Y-92930000D02*
X129230000Y-95530000D01*
%TO.C,C5*%
X136426248Y-84290000D02*
X137848752Y-84290000D01*
X136426248Y-87010000D02*
X137848752Y-87010000D01*
%TO.C,IC1*%
X144060000Y-90950000D02*
X144060000Y-92900000D01*
X138940000Y-90950000D02*
X138940000Y-89000000D01*
X138940000Y-90950000D02*
X138940000Y-94400000D01*
X144060000Y-90950000D02*
X144060000Y-89000000D01*
%TO.C,C2*%
X144460000Y-97801248D02*
X144460000Y-99223752D01*
X141740000Y-97801248D02*
X141740000Y-99223752D01*
%TO.C,R3*%
X141827064Y-84915000D02*
X141372936Y-84915000D01*
X141827064Y-86385000D02*
X141372936Y-86385000D01*
%TO.C,L1*%
X141200000Y-99050000D02*
X137200000Y-99050000D01*
X141200000Y-94850000D02*
X137200000Y-94850000D01*
%TO.C,R1*%
X146565000Y-89072936D02*
X146565000Y-89527064D01*
X148035000Y-89072936D02*
X148035000Y-89527064D01*
%TO.C,C3*%
X148665000Y-89561252D02*
X148665000Y-89038748D01*
X150135000Y-89561252D02*
X150135000Y-89038748D01*
%TO.C,ST3*%
X148600000Y-86950000D02*
X146200000Y-86950000D01*
X146200000Y-84550000D02*
X148600000Y-84550000D01*
X146200000Y-86950000D02*
X146200000Y-84550000D01*
X148600000Y-84550000D02*
X148600000Y-86950000D01*
D13*
%TO.C,SI1*%
X130024953Y-85735133D02*
X130876583Y-88074967D01*
D12*
%TO.C,D1*%
X132900000Y-96250000D02*
X132900000Y-90550000D01*
X129900000Y-96250000D02*
X132900000Y-96250000D01*
X129900000Y-90550000D02*
X129900000Y-96250000D01*
%TO.C,C1*%
X145935000Y-91076248D02*
X145935000Y-91598752D01*
X144465000Y-91076248D02*
X144465000Y-91598752D01*
%TO.C,ST4*%
X140400000Y-100350000D02*
X140400000Y-102750000D01*
X138000000Y-100350000D02*
X140400000Y-100350000D01*
X138000000Y-102750000D02*
X138000000Y-100350000D01*
X140400000Y-102750000D02*
X138000000Y-102750000D01*
%TD*%
M02*
