%TF.GenerationSoftware,KiCad,Pcbnew,(6.0.9)*%
%TF.CreationDate,2024-03-30T18:12:03+01:00*%
%TF.ProjectId,HBW-IO-4-FM_Platine1,4842572d-494f-42d3-942d-464d5f506c61,rev?*%
%TF.SameCoordinates,Original*%
%TF.FileFunction,Legend,Top*%
%TF.FilePolarity,Positive*%
%FSLAX46Y46*%
G04 Gerber Fmt 4.6, Leading zero omitted, Abs format (unit mm)*
G04 Created by KiCad (PCBNEW (6.0.9)) date 2024-03-30 18:12:03*
%MOMM*%
%LPD*%
G01*
G04 APERTURE LIST*
%ADD10C,0.150000*%
%ADD11C,0.120000*%
G04 APERTURE END LIST*
D10*
%TO.C,C4*%
X131107142Y-99966666D02*
X131154761Y-100014285D01*
X131202380Y-100157142D01*
X131202380Y-100252380D01*
X131154761Y-100395238D01*
X131059523Y-100490476D01*
X130964285Y-100538095D01*
X130773809Y-100585714D01*
X130630952Y-100585714D01*
X130440476Y-100538095D01*
X130345238Y-100490476D01*
X130250000Y-100395238D01*
X130202380Y-100252380D01*
X130202380Y-100157142D01*
X130250000Y-100014285D01*
X130297619Y-99966666D01*
X130535714Y-99109523D02*
X131202380Y-99109523D01*
X130154761Y-99347619D02*
X130869047Y-99585714D01*
X130869047Y-98966666D01*
%TO.C,R2*%
X121483333Y-91852380D02*
X121150000Y-91376190D01*
X120911904Y-91852380D02*
X120911904Y-90852380D01*
X121292857Y-90852380D01*
X121388095Y-90900000D01*
X121435714Y-90947619D01*
X121483333Y-91042857D01*
X121483333Y-91185714D01*
X121435714Y-91280952D01*
X121388095Y-91328571D01*
X121292857Y-91376190D01*
X120911904Y-91376190D01*
X121864285Y-90947619D02*
X121911904Y-90900000D01*
X122007142Y-90852380D01*
X122245238Y-90852380D01*
X122340476Y-90900000D01*
X122388095Y-90947619D01*
X122435714Y-91042857D01*
X122435714Y-91138095D01*
X122388095Y-91280952D01*
X121816666Y-91852380D01*
X122435714Y-91852380D01*
%TO.C,R6*%
X144261624Y-99600186D02*
X143803688Y-99519374D01*
X143938375Y-99923435D02*
X143372690Y-99357749D01*
X143588189Y-99142250D01*
X143669001Y-99115312D01*
X143722876Y-99115312D01*
X143803688Y-99142250D01*
X143884500Y-99223062D01*
X143911438Y-99303874D01*
X143911438Y-99357749D01*
X143884500Y-99438561D01*
X143669001Y-99654061D01*
X144180812Y-98549627D02*
X144073062Y-98657377D01*
X144046125Y-98738189D01*
X144046125Y-98792064D01*
X144073062Y-98926751D01*
X144153874Y-99061438D01*
X144369374Y-99276937D01*
X144450186Y-99303874D01*
X144504061Y-99303874D01*
X144584873Y-99276937D01*
X144692622Y-99169187D01*
X144719560Y-99088375D01*
X144719560Y-99034500D01*
X144692622Y-98953688D01*
X144557935Y-98819001D01*
X144477123Y-98792064D01*
X144423248Y-98792064D01*
X144342436Y-98819001D01*
X144234687Y-98926751D01*
X144207749Y-99007563D01*
X144207749Y-99061438D01*
X144234687Y-99142250D01*
%TO.C,R3*%
X121483333Y-93852380D02*
X121150000Y-93376190D01*
X120911904Y-93852380D02*
X120911904Y-92852380D01*
X121292857Y-92852380D01*
X121388095Y-92900000D01*
X121435714Y-92947619D01*
X121483333Y-93042857D01*
X121483333Y-93185714D01*
X121435714Y-93280952D01*
X121388095Y-93328571D01*
X121292857Y-93376190D01*
X120911904Y-93376190D01*
X121816666Y-92852380D02*
X122435714Y-92852380D01*
X122102380Y-93233333D01*
X122245238Y-93233333D01*
X122340476Y-93280952D01*
X122388095Y-93328571D01*
X122435714Y-93423809D01*
X122435714Y-93661904D01*
X122388095Y-93757142D01*
X122340476Y-93804761D01*
X122245238Y-93852380D01*
X121959523Y-93852380D01*
X121864285Y-93804761D01*
X121816666Y-93757142D01*
%TO.C,C5*%
X134869642Y-101266666D02*
X134917261Y-101314285D01*
X134964880Y-101457142D01*
X134964880Y-101552380D01*
X134917261Y-101695238D01*
X134822023Y-101790476D01*
X134726785Y-101838095D01*
X134536309Y-101885714D01*
X134393452Y-101885714D01*
X134202976Y-101838095D01*
X134107738Y-101790476D01*
X134012500Y-101695238D01*
X133964880Y-101552380D01*
X133964880Y-101457142D01*
X134012500Y-101314285D01*
X134060119Y-101266666D01*
X133964880Y-100361904D02*
X133964880Y-100838095D01*
X134441071Y-100885714D01*
X134393452Y-100838095D01*
X134345833Y-100742857D01*
X134345833Y-100504761D01*
X134393452Y-100409523D01*
X134441071Y-100361904D01*
X134536309Y-100314285D01*
X134774404Y-100314285D01*
X134869642Y-100361904D01*
X134917261Y-100409523D01*
X134964880Y-100504761D01*
X134964880Y-100742857D01*
X134917261Y-100838095D01*
X134869642Y-100885714D01*
%TO.C,R4*%
X129952380Y-99966666D02*
X129476190Y-100300000D01*
X129952380Y-100538095D02*
X128952380Y-100538095D01*
X128952380Y-100157142D01*
X129000000Y-100061904D01*
X129047619Y-100014285D01*
X129142857Y-99966666D01*
X129285714Y-99966666D01*
X129380952Y-100014285D01*
X129428571Y-100061904D01*
X129476190Y-100157142D01*
X129476190Y-100538095D01*
X129285714Y-99109523D02*
X129952380Y-99109523D01*
X128904761Y-99347619D02*
X129619047Y-99585714D01*
X129619047Y-98966666D01*
%TO.C,C6*%
X121383333Y-95757142D02*
X121335714Y-95804761D01*
X121192857Y-95852380D01*
X121097619Y-95852380D01*
X120954761Y-95804761D01*
X120859523Y-95709523D01*
X120811904Y-95614285D01*
X120764285Y-95423809D01*
X120764285Y-95280952D01*
X120811904Y-95090476D01*
X120859523Y-94995238D01*
X120954761Y-94900000D01*
X121097619Y-94852380D01*
X121192857Y-94852380D01*
X121335714Y-94900000D01*
X121383333Y-94947619D01*
X122240476Y-94852380D02*
X122050000Y-94852380D01*
X121954761Y-94900000D01*
X121907142Y-94947619D01*
X121811904Y-95090476D01*
X121764285Y-95280952D01*
X121764285Y-95661904D01*
X121811904Y-95757142D01*
X121859523Y-95804761D01*
X121954761Y-95852380D01*
X122145238Y-95852380D01*
X122240476Y-95804761D01*
X122288095Y-95757142D01*
X122335714Y-95661904D01*
X122335714Y-95423809D01*
X122288095Y-95328571D01*
X122240476Y-95280952D01*
X122145238Y-95233333D01*
X121954761Y-95233333D01*
X121859523Y-95280952D01*
X121811904Y-95328571D01*
X121764285Y-95423809D01*
%TO.C,C1*%
X126857142Y-84266666D02*
X126904761Y-84314285D01*
X126952380Y-84457142D01*
X126952380Y-84552380D01*
X126904761Y-84695238D01*
X126809523Y-84790476D01*
X126714285Y-84838095D01*
X126523809Y-84885714D01*
X126380952Y-84885714D01*
X126190476Y-84838095D01*
X126095238Y-84790476D01*
X126000000Y-84695238D01*
X125952380Y-84552380D01*
X125952380Y-84457142D01*
X126000000Y-84314285D01*
X126047619Y-84266666D01*
X126952380Y-83314285D02*
X126952380Y-83885714D01*
X126952380Y-83600000D02*
X125952380Y-83600000D01*
X126095238Y-83695238D01*
X126190476Y-83790476D01*
X126238095Y-83885714D01*
%TO.C,Y1*%
X142419881Y-86753553D02*
X142756599Y-86416835D01*
X142285194Y-87359644D02*
X142419881Y-86753553D01*
X141813790Y-86888240D01*
X141914805Y-85575042D02*
X142318866Y-85979103D01*
X142116835Y-85777072D02*
X141409729Y-86484179D01*
X141578087Y-86450507D01*
X141712774Y-86450507D01*
X141813790Y-86484179D01*
%TO.C,C3*%
X142157142Y-88866666D02*
X142204761Y-88914285D01*
X142252380Y-89057142D01*
X142252380Y-89152380D01*
X142204761Y-89295238D01*
X142109523Y-89390476D01*
X142014285Y-89438095D01*
X141823809Y-89485714D01*
X141680952Y-89485714D01*
X141490476Y-89438095D01*
X141395238Y-89390476D01*
X141300000Y-89295238D01*
X141252380Y-89152380D01*
X141252380Y-89057142D01*
X141300000Y-88914285D01*
X141347619Y-88866666D01*
X141252380Y-88533333D02*
X141252380Y-87914285D01*
X141633333Y-88247619D01*
X141633333Y-88104761D01*
X141680952Y-88009523D01*
X141728571Y-87961904D01*
X141823809Y-87914285D01*
X142061904Y-87914285D01*
X142157142Y-87961904D01*
X142204761Y-88009523D01*
X142252380Y-88104761D01*
X142252380Y-88390476D01*
X142204761Y-88485714D01*
X142157142Y-88533333D01*
%TO.C,R1*%
X134733333Y-83552380D02*
X134400000Y-83076190D01*
X134161904Y-83552380D02*
X134161904Y-82552380D01*
X134542857Y-82552380D01*
X134638095Y-82600000D01*
X134685714Y-82647619D01*
X134733333Y-82742857D01*
X134733333Y-82885714D01*
X134685714Y-82980952D01*
X134638095Y-83028571D01*
X134542857Y-83076190D01*
X134161904Y-83076190D01*
X135685714Y-83552380D02*
X135114285Y-83552380D01*
X135400000Y-83552380D02*
X135400000Y-82552380D01*
X135304761Y-82695238D01*
X135209523Y-82790476D01*
X135114285Y-82838095D01*
%TO.C,R7*%
X142202380Y-92666666D02*
X141726190Y-93000000D01*
X142202380Y-93238095D02*
X141202380Y-93238095D01*
X141202380Y-92857142D01*
X141250000Y-92761904D01*
X141297619Y-92714285D01*
X141392857Y-92666666D01*
X141535714Y-92666666D01*
X141630952Y-92714285D01*
X141678571Y-92761904D01*
X141726190Y-92857142D01*
X141726190Y-93238095D01*
X141202380Y-92333333D02*
X141202380Y-91666666D01*
X142202380Y-92095238D01*
%TO.C,C7*%
X121433333Y-89657142D02*
X121385714Y-89704761D01*
X121242857Y-89752380D01*
X121147619Y-89752380D01*
X121004761Y-89704761D01*
X120909523Y-89609523D01*
X120861904Y-89514285D01*
X120814285Y-89323809D01*
X120814285Y-89180952D01*
X120861904Y-88990476D01*
X120909523Y-88895238D01*
X121004761Y-88800000D01*
X121147619Y-88752380D01*
X121242857Y-88752380D01*
X121385714Y-88800000D01*
X121433333Y-88847619D01*
X121766666Y-88752380D02*
X122433333Y-88752380D01*
X122004761Y-89752380D01*
%TO.C,C10*%
X139207142Y-99707142D02*
X139159523Y-99754761D01*
X139016666Y-99802380D01*
X138921428Y-99802380D01*
X138778571Y-99754761D01*
X138683333Y-99659523D01*
X138635714Y-99564285D01*
X138588095Y-99373809D01*
X138588095Y-99230952D01*
X138635714Y-99040476D01*
X138683333Y-98945238D01*
X138778571Y-98850000D01*
X138921428Y-98802380D01*
X139016666Y-98802380D01*
X139159523Y-98850000D01*
X139207142Y-98897619D01*
X140159523Y-99802380D02*
X139588095Y-99802380D01*
X139873809Y-99802380D02*
X139873809Y-98802380D01*
X139778571Y-98945238D01*
X139683333Y-99040476D01*
X139588095Y-99088095D01*
X140778571Y-98802380D02*
X140873809Y-98802380D01*
X140969047Y-98850000D01*
X141016666Y-98897619D01*
X141064285Y-98992857D01*
X141111904Y-99183333D01*
X141111904Y-99421428D01*
X141064285Y-99611904D01*
X141016666Y-99707142D01*
X140969047Y-99754761D01*
X140873809Y-99802380D01*
X140778571Y-99802380D01*
X140683333Y-99754761D01*
X140635714Y-99707142D01*
X140588095Y-99611904D01*
X140540476Y-99421428D01*
X140540476Y-99183333D01*
X140588095Y-98992857D01*
X140635714Y-98897619D01*
X140683333Y-98850000D01*
X140778571Y-98802380D01*
%TO.C,C2*%
X121433333Y-87557142D02*
X121385714Y-87604761D01*
X121242857Y-87652380D01*
X121147619Y-87652380D01*
X121004761Y-87604761D01*
X120909523Y-87509523D01*
X120861904Y-87414285D01*
X120814285Y-87223809D01*
X120814285Y-87080952D01*
X120861904Y-86890476D01*
X120909523Y-86795238D01*
X121004761Y-86700000D01*
X121147619Y-86652380D01*
X121242857Y-86652380D01*
X121385714Y-86700000D01*
X121433333Y-86747619D01*
X121814285Y-86747619D02*
X121861904Y-86700000D01*
X121957142Y-86652380D01*
X122195238Y-86652380D01*
X122290476Y-86700000D01*
X122338095Y-86747619D01*
X122385714Y-86842857D01*
X122385714Y-86938095D01*
X122338095Y-87080952D01*
X121766666Y-87652380D01*
X122385714Y-87652380D01*
%TO.C,C8*%
X134933333Y-99857142D02*
X134885714Y-99904761D01*
X134742857Y-99952380D01*
X134647619Y-99952380D01*
X134504761Y-99904761D01*
X134409523Y-99809523D01*
X134361904Y-99714285D01*
X134314285Y-99523809D01*
X134314285Y-99380952D01*
X134361904Y-99190476D01*
X134409523Y-99095238D01*
X134504761Y-99000000D01*
X134647619Y-98952380D01*
X134742857Y-98952380D01*
X134885714Y-99000000D01*
X134933333Y-99047619D01*
X135504761Y-99380952D02*
X135409523Y-99333333D01*
X135361904Y-99285714D01*
X135314285Y-99190476D01*
X135314285Y-99142857D01*
X135361904Y-99047619D01*
X135409523Y-99000000D01*
X135504761Y-98952380D01*
X135695238Y-98952380D01*
X135790476Y-99000000D01*
X135838095Y-99047619D01*
X135885714Y-99142857D01*
X135885714Y-99190476D01*
X135838095Y-99285714D01*
X135790476Y-99333333D01*
X135695238Y-99380952D01*
X135504761Y-99380952D01*
X135409523Y-99428571D01*
X135361904Y-99476190D01*
X135314285Y-99571428D01*
X135314285Y-99761904D01*
X135361904Y-99857142D01*
X135409523Y-99904761D01*
X135504761Y-99952380D01*
X135695238Y-99952380D01*
X135790476Y-99904761D01*
X135838095Y-99857142D01*
X135885714Y-99761904D01*
X135885714Y-99571428D01*
X135838095Y-99476190D01*
X135790476Y-99428571D01*
X135695238Y-99380952D01*
%TO.C,IC2*%
X138823809Y-97852380D02*
X138823809Y-96852380D01*
X139871428Y-97757142D02*
X139823809Y-97804761D01*
X139680952Y-97852380D01*
X139585714Y-97852380D01*
X139442857Y-97804761D01*
X139347619Y-97709523D01*
X139300000Y-97614285D01*
X139252380Y-97423809D01*
X139252380Y-97280952D01*
X139300000Y-97090476D01*
X139347619Y-96995238D01*
X139442857Y-96900000D01*
X139585714Y-96852380D01*
X139680952Y-96852380D01*
X139823809Y-96900000D01*
X139871428Y-96947619D01*
X140252380Y-96947619D02*
X140300000Y-96900000D01*
X140395238Y-96852380D01*
X140633333Y-96852380D01*
X140728571Y-96900000D01*
X140776190Y-96947619D01*
X140823809Y-97042857D01*
X140823809Y-97138095D01*
X140776190Y-97280952D01*
X140204761Y-97852380D01*
X140823809Y-97852380D01*
%TO.C,R5*%
X127652380Y-97966666D02*
X127176190Y-98300000D01*
X127652380Y-98538095D02*
X126652380Y-98538095D01*
X126652380Y-98157142D01*
X126700000Y-98061904D01*
X126747619Y-98014285D01*
X126842857Y-97966666D01*
X126985714Y-97966666D01*
X127080952Y-98014285D01*
X127128571Y-98061904D01*
X127176190Y-98157142D01*
X127176190Y-98538095D01*
X126652380Y-97061904D02*
X126652380Y-97538095D01*
X127128571Y-97585714D01*
X127080952Y-97538095D01*
X127033333Y-97442857D01*
X127033333Y-97204761D01*
X127080952Y-97109523D01*
X127128571Y-97061904D01*
X127223809Y-97014285D01*
X127461904Y-97014285D01*
X127557142Y-97061904D01*
X127604761Y-97109523D01*
X127652380Y-97204761D01*
X127652380Y-97442857D01*
X127604761Y-97538095D01*
X127557142Y-97585714D01*
%TO.C,IC1*%
X132523809Y-89852380D02*
X132523809Y-88852380D01*
X133571428Y-89757142D02*
X133523809Y-89804761D01*
X133380952Y-89852380D01*
X133285714Y-89852380D01*
X133142857Y-89804761D01*
X133047619Y-89709523D01*
X133000000Y-89614285D01*
X132952380Y-89423809D01*
X132952380Y-89280952D01*
X133000000Y-89090476D01*
X133047619Y-88995238D01*
X133142857Y-88900000D01*
X133285714Y-88852380D01*
X133380952Y-88852380D01*
X133523809Y-88900000D01*
X133571428Y-88947619D01*
X134523809Y-89852380D02*
X133952380Y-89852380D01*
X134238095Y-89852380D02*
X134238095Y-88852380D01*
X134142857Y-88995238D01*
X134047619Y-89090476D01*
X133952380Y-89138095D01*
%TO.C,C9*%
X128557142Y-99966666D02*
X128604761Y-100014285D01*
X128652380Y-100157142D01*
X128652380Y-100252380D01*
X128604761Y-100395238D01*
X128509523Y-100490476D01*
X128414285Y-100538095D01*
X128223809Y-100585714D01*
X128080952Y-100585714D01*
X127890476Y-100538095D01*
X127795238Y-100490476D01*
X127700000Y-100395238D01*
X127652380Y-100252380D01*
X127652380Y-100157142D01*
X127700000Y-100014285D01*
X127747619Y-99966666D01*
X128652380Y-99490476D02*
X128652380Y-99300000D01*
X128604761Y-99204761D01*
X128557142Y-99157142D01*
X128414285Y-99061904D01*
X128223809Y-99014285D01*
X127842857Y-99014285D01*
X127747619Y-99061904D01*
X127700000Y-99109523D01*
X127652380Y-99204761D01*
X127652380Y-99395238D01*
X127700000Y-99490476D01*
X127747619Y-99538095D01*
X127842857Y-99585714D01*
X128080952Y-99585714D01*
X128176190Y-99538095D01*
X128223809Y-99490476D01*
X128271428Y-99395238D01*
X128271428Y-99204761D01*
X128223809Y-99109523D01*
X128176190Y-99061904D01*
X128080952Y-99014285D01*
D11*
%TO.C,ST2*%
X133800000Y-101500000D02*
X131400000Y-101500000D01*
X131400000Y-101500000D02*
X131400000Y-99100000D01*
X131400000Y-99100000D02*
X133800000Y-99100000D01*
X133800000Y-99100000D02*
X133800000Y-101500000D01*
%TO.C,C4*%
X133872500Y-96638748D02*
X133872500Y-97161252D01*
X132402500Y-96638748D02*
X132402500Y-97161252D01*
%TO.C,R2*%
X124627064Y-90665000D02*
X124172936Y-90665000D01*
X124627064Y-92135000D02*
X124172936Y-92135000D01*
%TO.C,R6*%
X145235000Y-96977064D02*
X145235000Y-96522936D01*
X143765000Y-96977064D02*
X143765000Y-96522936D01*
%TO.C,R3*%
X124627064Y-94135000D02*
X124172936Y-94135000D01*
X124627064Y-92665000D02*
X124172936Y-92665000D01*
%TO.C,C5*%
X137011252Y-101835000D02*
X136488748Y-101835000D01*
X137011252Y-100365000D02*
X136488748Y-100365000D01*
%TO.C,R4*%
X131872500Y-96672936D02*
X131872500Y-97127064D01*
X130402500Y-96672936D02*
X130402500Y-97127064D01*
%TO.C,C6*%
X124611252Y-94665000D02*
X124088748Y-94665000D01*
X124611252Y-96135000D02*
X124088748Y-96135000D01*
%TO.C,C1*%
X127365000Y-83838748D02*
X127365000Y-84361252D01*
X128835000Y-83838748D02*
X128835000Y-84361252D01*
%TO.C,Y1*%
X140565685Y-86662742D02*
X141979899Y-85248528D01*
X141414214Y-84117157D02*
X141697056Y-83834315D01*
X137878680Y-83975736D02*
X139292893Y-82561522D01*
X141838478Y-85107107D02*
X140424264Y-86521320D01*
X138444365Y-84541421D02*
X137878680Y-83975736D01*
X141414214Y-84117157D02*
X142121320Y-84824264D01*
X141838478Y-85107107D02*
X142121320Y-84824264D01*
X139575736Y-82278680D02*
X140141421Y-82844365D01*
X141979899Y-85248528D02*
X142262742Y-84965685D01*
X140424264Y-86521320D02*
X139717157Y-85814214D01*
X139292893Y-82561522D02*
X139575736Y-82278680D01*
%TO.C,C3*%
X139365000Y-88961252D02*
X139365000Y-88438748D01*
X140835000Y-88961252D02*
X140835000Y-88438748D01*
%TO.C,R1*%
X132327064Y-82365000D02*
X131872936Y-82365000D01*
X132327064Y-83835000D02*
X131872936Y-83835000D01*
%TO.C,R7*%
X139365000Y-92272936D02*
X139365000Y-92727064D01*
X140835000Y-92272936D02*
X140835000Y-92727064D01*
%TO.C,J1*%
X142570000Y-91695000D02*
X142570000Y-94295000D01*
X142570000Y-94295000D02*
X145230000Y-94295000D01*
X142570000Y-90425000D02*
X142570000Y-89095000D01*
X145230000Y-91695000D02*
X145230000Y-94295000D01*
X142570000Y-91695000D02*
X145230000Y-91695000D01*
X142570000Y-89095000D02*
X143900000Y-89095000D01*
%TO.C,ST1*%
X125600000Y-85700000D02*
X123200000Y-85700000D01*
X123200000Y-85700000D02*
X123200000Y-83300000D01*
X125600000Y-83300000D02*
X125600000Y-85700000D01*
X123200000Y-83300000D02*
X125600000Y-83300000D01*
%TO.C,C7*%
X124661252Y-90035000D02*
X124138748Y-90035000D01*
X124661252Y-88565000D02*
X124138748Y-88565000D01*
%TO.C,C10*%
X140276248Y-100365000D02*
X140798752Y-100365000D01*
X140276248Y-101835000D02*
X140798752Y-101835000D01*
%TO.C,C2*%
X124138748Y-87935000D02*
X124661252Y-87935000D01*
X124138748Y-86465000D02*
X124661252Y-86465000D01*
%TO.C,C8*%
X134365000Y-96676248D02*
X134365000Y-97198752D01*
X135835000Y-96676248D02*
X135835000Y-97198752D01*
%TO.C,IC2*%
X139800000Y-94840000D02*
X141750000Y-94840000D01*
X139800000Y-99960000D02*
X137850000Y-99960000D01*
X139800000Y-94840000D02*
X137850000Y-94840000D01*
X139800000Y-99960000D02*
X143250000Y-99960000D01*
%TO.C,R5*%
X127935000Y-95127064D02*
X127935000Y-94672936D01*
X126465000Y-95127064D02*
X126465000Y-94672936D01*
D10*
%TO.C,IC1*%
X137125000Y-85775000D02*
X137125000Y-86100000D01*
X129875000Y-93025000D02*
X130200000Y-93025000D01*
X129875000Y-85775000D02*
X130200000Y-85775000D01*
X137125000Y-92800000D02*
X138550000Y-92800000D01*
X137125000Y-93025000D02*
X137125000Y-92800000D01*
X129875000Y-85775000D02*
X129875000Y-86100000D01*
X137125000Y-93025000D02*
X136800000Y-93025000D01*
X129875000Y-93025000D02*
X129875000Y-92700000D01*
X137125000Y-85775000D02*
X136800000Y-85775000D01*
D11*
%TO.C,C9*%
X128402500Y-96638748D02*
X128402500Y-97161252D01*
X129872500Y-96638748D02*
X129872500Y-97161252D01*
%TD*%
M02*
