M48
; DRILL file {KiCad (6.0.9)} date Sat Mar 30 18:12:05 2024
; FORMAT={-:-/ absolute / inch / decimal}
; #@! TF.CreationDate,2024-03-30T18:12:05+01:00
; #@! TF.GenerationSoftware,Kicad,Pcbnew,(6.0.9)
; #@! TF.FileFunction,Plated,1,2,PTH
FMAT,2
INCH
; #@! TA.AperFunction,Plated,PTH,ViaDrill
T1C0.0118
; #@! TA.AperFunction,Plated,PTH,ComponentDrill
T2C0.0394
%
G90
G05
T1
X4.8071Y-3.4331
X4.8071Y-3.5157
X4.8071Y-3.5984
X4.8071Y-3.6772
X4.8071Y-3.752
X4.8543Y-3.8189
X4.8937Y-3.5669
X4.8937Y-3.6457
X5.0827Y-3.6969
X5.0945Y-3.374
X5.1397Y-3.5138
X5.1417Y-3.5492
X5.1417Y-3.9016
X5.2008Y-3.6319
X5.2087Y-3.4646
X5.2579Y-3.4134
X5.2854Y-3.5118
X5.2933Y-3.4134
X5.3031Y-3.6299
X5.315Y-3.4724
X5.315Y-3.5374
X5.3268Y-3.439
X5.3268Y-3.9252
X5.3346Y-3.6299
X5.3386Y-3.5984
X5.3524Y-3.5039
X5.3524Y-3.5669
X5.3858Y-3.9429
X5.4295Y-3.662
X5.4606Y-3.6772
X5.4606Y-3.8858
X5.4646Y-3.7776
X5.4724Y-3.8307
X5.561Y-3.4921
X5.5618Y-3.6546
X5.6693Y-3.9016
T2
X4.8976Y-3.3268
X5.2205Y-3.9488
X5.6654Y-3.56
X5.6654Y-3.66
T0
M30
