%TF.GenerationSoftware,KiCad,Pcbnew,(6.0.9)*%
%TF.CreationDate,2024-03-30T18:12:03+01:00*%
%TF.ProjectId,HBW-IO-4-FM_Platine1,4842572d-494f-42d3-942d-464d5f506c61,rev?*%
%TF.SameCoordinates,Original*%
%TF.FileFunction,Copper,L2,Bot*%
%TF.FilePolarity,Positive*%
%FSLAX46Y46*%
G04 Gerber Fmt 4.6, Leading zero omitted, Abs format (unit mm)*
G04 Created by KiCad (PCBNEW (6.0.9)) date 2024-03-30 18:12:03*
%MOMM*%
%LPD*%
G01*
G04 APERTURE LIST*
%TA.AperFunction,ComponentPad*%
%ADD10O,2.000000X2.000000*%
%TD*%
%TA.AperFunction,ComponentPad*%
%ADD11O,1.700000X1.700000*%
%TD*%
%TA.AperFunction,SMDPad,CuDef*%
%ADD12R,2.000000X1.000000*%
%TD*%
%TA.AperFunction,SMDPad,CuDef*%
%ADD13R,0.900000X1.000000*%
%TD*%
%TA.AperFunction,SMDPad,CuDef*%
%ADD14R,1.000000X2.000000*%
%TD*%
%TA.AperFunction,SMDPad,CuDef*%
%ADD15C,2.000000*%
%TD*%
%TA.AperFunction,ViaPad*%
%ADD16C,0.600000*%
%TD*%
%TA.AperFunction,Conductor*%
%ADD17C,0.600000*%
%TD*%
%TA.AperFunction,Conductor*%
%ADD18C,0.250000*%
%TD*%
G04 APERTURE END LIST*
D10*
%TO.P,ST2,1,Pin_1*%
%TO.N,/GND*%
X132600000Y-100300000D03*
%TD*%
D11*
%TO.P,J1,1,Pin_1*%
%TO.N,/+24V*%
X143900000Y-90425000D03*
%TO.P,J1,2,Pin_2*%
%TO.N,/GND*%
X143900000Y-92965000D03*
%TD*%
D10*
%TO.P,ST1,1,Pin_1*%
%TO.N,/VCC*%
X124400000Y-84500000D03*
%TD*%
D12*
%TO.P,D1,1,K*%
%TO.N,/GND*%
X127100000Y-94000000D03*
%TO.P,D1,2,A*%
%TO.N,Net-(D1-Pad2)*%
X127100000Y-91460000D03*
%TD*%
D13*
%TO.P,SW1,1,1*%
%TO.N,/Button*%
X129350000Y-89200000D03*
X125250000Y-89200000D03*
%TO.P,SW1,2,2*%
%TO.N,/GND*%
X125250000Y-87600000D03*
X129350000Y-87600000D03*
%TD*%
D14*
%TO.P,ST10,1,Pin_1*%
%TO.N,/GND*%
X139600000Y-90400000D03*
%TD*%
%TO.P,ST3,1,Pin_1*%
%TO.N,Net-(C16-Pad1)*%
X137600000Y-84100000D03*
%TD*%
%TO.P,ST4,1,Pin_1*%
%TO.N,Net-(R4-Pad2)*%
X131900000Y-84100000D03*
%TD*%
%TO.P,ST5,1,Pin_1*%
%TO.N,Net-(R3-Pad2)*%
X130000000Y-84100000D03*
%TD*%
%TO.P,ST9,1,Pin_1*%
%TO.N,/+24V*%
X141500000Y-90400000D03*
%TD*%
D15*
%TO.P,ISP,1,Pin_1*%
%TO.N,/MOSI*%
X140400000Y-98550000D03*
%TO.P,ISP,2,Pin_2*%
%TO.N,/MISO*%
X140400000Y-95000000D03*
%TO.P,ISP,3,Pin_3*%
%TO.N,/GND*%
X136900000Y-98550000D03*
%TO.P,ISP,4,Pin_4*%
%TO.N,/VCC*%
X136900000Y-95000000D03*
%TO.P,ISP,5,Pin_5*%
%TO.N,/SCK*%
X132650000Y-96800000D03*
%TO.P,ISP,6,Pin_6*%
%TO.N,/RST*%
X128650000Y-96800000D03*
%TD*%
D14*
%TO.P,ST6,1,Pin_1*%
%TO.N,Net-(C14-Pad1)*%
X135700000Y-84100000D03*
%TD*%
%TO.P,ST7,1,Pin_1*%
%TO.N,Net-(R2-Pad2)*%
X128100000Y-84100000D03*
%TD*%
%TO.P,ST8,1,Pin_1*%
%TO.N,Net-(R5-Pad2)*%
X133800000Y-84100000D03*
%TD*%
D16*
%TO.N,/GND*%
X144000000Y-99100000D03*
X122100000Y-91400000D03*
X136800000Y-100150000D03*
X135950000Y-90600000D03*
X123300000Y-97000000D03*
X122100000Y-95300000D03*
X135950000Y-89000000D03*
X130600000Y-90150000D03*
X122100000Y-87200000D03*
X122100000Y-93400000D03*
X122100000Y-89300000D03*
%TO.N,/VCC*%
X135300000Y-99700000D03*
X135000000Y-88200000D03*
X135000000Y-89850000D03*
%TO.N,Net-(C14-Pad1)*%
X138700000Y-98700000D03*
%TO.N,Net-(C16-Pad1)*%
X139000000Y-97300000D03*
X141269619Y-92825807D03*
X141250000Y-88700000D03*
%TO.N,Net-(D1-Pad2)*%
X129400000Y-85700000D03*
%TO.N,/Button*%
X134250000Y-89200000D03*
X134450000Y-86700000D03*
X130549502Y-89250000D03*
%TO.N,/RST*%
X135600000Y-91400000D03*
X132100000Y-92250000D03*
X138700000Y-93400000D03*
%TO.N,/RXD*%
X134700000Y-92200000D03*
X138800000Y-95950000D03*
%TO.N,/TXD*%
X137909266Y-93015236D03*
X135500000Y-92200000D03*
%TO.N,Net-(R2-Pad2)*%
X124300000Y-90600000D03*
%TO.N,Net-(R3-Pad2)*%
X124300000Y-92600000D03*
%TO.N,Net-(R4-Pad2)*%
X129100000Y-93900000D03*
%TO.N,Net-(R5-Pad2)*%
X130600000Y-99100000D03*
%TO.N,/MOSI*%
X133550000Y-86700000D03*
%TO.N,/MISO*%
X135300000Y-87350000D03*
%TO.N,/SCK*%
X132300000Y-88000000D03*
%TD*%
D17*
%TO.N,/GND*%
X141580000Y-101400000D02*
X143700000Y-99280000D01*
X133700000Y-101400000D02*
X141580000Y-101400000D01*
X132600000Y-100300000D02*
X133700000Y-101400000D01*
D18*
X143700000Y-99100000D02*
X144000000Y-99100000D01*
%TO.N,/MOSI*%
X138175000Y-100775000D02*
X140400000Y-98550000D01*
X134675000Y-100075000D02*
X135375000Y-100775000D01*
X134675000Y-95838604D02*
X134675000Y-100075000D01*
X135375000Y-100775000D02*
X138175000Y-100775000D01*
X133625000Y-94788604D02*
X134675000Y-95838604D01*
X133525000Y-89450000D02*
X133625000Y-89550000D01*
X133525000Y-86725000D02*
X133525000Y-89450000D01*
X133550000Y-86700000D02*
X133525000Y-86725000D01*
X133625000Y-89550000D02*
X133625000Y-94788604D01*
%TO.N,Net-(R5-Pad2)*%
X133850000Y-85200000D02*
X133850000Y-84150000D01*
X132850000Y-86200000D02*
X133850000Y-85200000D01*
X132850000Y-87666116D02*
X132850000Y-86200000D01*
X132950000Y-87766116D02*
X132850000Y-87666116D01*
X132950000Y-91329720D02*
X132950000Y-87766116D01*
X133175000Y-94975000D02*
X133175000Y-91554720D01*
X132825000Y-98975000D02*
X134210000Y-97590000D01*
X130725000Y-98975000D02*
X132825000Y-98975000D01*
X134210000Y-97590000D02*
X134210000Y-96010000D01*
X134210000Y-96010000D02*
X133175000Y-94975000D01*
X133175000Y-91554720D02*
X132950000Y-91329720D01*
X130600000Y-99100000D02*
X130725000Y-98975000D01*
%TO.N,Net-(C14-Pad1)*%
X138650000Y-98650000D02*
X138700000Y-98700000D01*
X138375000Y-97558884D02*
X138650000Y-97833884D01*
X138375000Y-97041116D02*
X138375000Y-97558884D01*
X141100000Y-96600000D02*
X138816116Y-96600000D01*
X141850000Y-94050000D02*
X141850000Y-95850000D01*
X138816116Y-96600000D02*
X138375000Y-97041116D01*
X141250000Y-93450000D02*
X141850000Y-94050000D01*
X140500000Y-93450000D02*
X141250000Y-93450000D01*
X141850000Y-95850000D02*
X141100000Y-96600000D01*
X138775000Y-91725000D02*
X140500000Y-93450000D01*
X135700000Y-86600000D02*
X138775000Y-89675000D01*
X138650000Y-97833884D02*
X138650000Y-98650000D01*
X138775000Y-89675000D02*
X138775000Y-91725000D01*
X135700000Y-84100000D02*
X135700000Y-86600000D01*
%TO.N,/GND*%
X136800000Y-100150000D02*
X136800000Y-98650000D01*
X142665000Y-92965000D02*
X143900000Y-92965000D01*
X139600000Y-90900000D02*
X140850000Y-92150000D01*
X141850000Y-92150000D02*
X142665000Y-92965000D01*
X140850000Y-92150000D02*
X141850000Y-92150000D01*
%TO.N,/VCC*%
X135300000Y-96600000D02*
X136900000Y-95000000D01*
X134075000Y-90775000D02*
X134075000Y-92575000D01*
X135000000Y-89850000D02*
X134075000Y-90775000D01*
X135000000Y-89850000D02*
X135000000Y-88200000D01*
X134075000Y-92575000D02*
X136500000Y-95000000D01*
X135300000Y-99700000D02*
X135300000Y-96600000D01*
%TO.N,Net-(C16-Pad1)*%
X139000000Y-84100000D02*
X137600000Y-84100000D01*
X141250000Y-88700000D02*
X141250000Y-86350000D01*
X142300000Y-96300000D02*
X142300000Y-93856188D01*
X142300000Y-93856188D02*
X141269619Y-92825807D01*
X139200000Y-97100000D02*
X141500000Y-97100000D01*
X141500000Y-97100000D02*
X142300000Y-96300000D01*
X141250000Y-86350000D02*
X139000000Y-84100000D01*
X139000000Y-97300000D02*
X139200000Y-97100000D01*
%TO.N,Net-(D1-Pad2)*%
X129400000Y-85700000D02*
X129036396Y-85700000D01*
X127100000Y-87636396D02*
X127100000Y-91460000D01*
X129036396Y-85700000D02*
X127100000Y-87636396D01*
%TO.N,/Button*%
X129350000Y-89200000D02*
X130499502Y-89200000D01*
X134450000Y-86700000D02*
X134225000Y-86925000D01*
X134225000Y-89175000D02*
X134250000Y-89200000D01*
X130499502Y-89200000D02*
X130549502Y-89250000D01*
X134225000Y-86925000D02*
X134225000Y-89175000D01*
%TO.N,/RST*%
X132100000Y-93350000D02*
X128650000Y-96800000D01*
X132100000Y-92250000D02*
X132100000Y-93350000D01*
X137177208Y-91400000D02*
X135600000Y-91400000D01*
X138700000Y-92922792D02*
X137177208Y-91400000D01*
X138700000Y-93400000D02*
X138700000Y-92922792D01*
%TO.N,/RXD*%
X135816116Y-93400000D02*
X134700000Y-92283884D01*
X134700000Y-92283884D02*
X134700000Y-92200000D01*
X137410146Y-93400000D02*
X135816116Y-93400000D01*
X138800000Y-95950000D02*
X138800000Y-94789854D01*
X138800000Y-94789854D02*
X137410146Y-93400000D01*
%TO.N,/TXD*%
X137909266Y-93015236D02*
X137909266Y-92809266D01*
X137300000Y-92200000D02*
X135500000Y-92200000D01*
X137909266Y-92809266D02*
X137300000Y-92200000D01*
%TO.N,Net-(R2-Pad2)*%
X124300000Y-90600000D02*
X125450000Y-90600000D01*
X125450000Y-90600000D02*
X126650000Y-89400000D01*
X126650000Y-89400000D02*
X126650000Y-87450000D01*
X128100000Y-86000000D02*
X128100000Y-84100000D01*
X126650000Y-87450000D02*
X128100000Y-86000000D01*
%TO.N,Net-(R3-Pad2)*%
X131225000Y-88445280D02*
X131225000Y-87554720D01*
X131225000Y-87554720D02*
X131450000Y-87329720D01*
X131450000Y-85800000D02*
X130000000Y-84350000D01*
X131450000Y-87329720D02*
X131450000Y-85800000D01*
X131600000Y-90750000D02*
X131600000Y-88820280D01*
X131600000Y-88820280D02*
X131225000Y-88445280D01*
X124300000Y-92600000D02*
X129750000Y-92600000D01*
X129750000Y-92600000D02*
X131600000Y-90750000D01*
%TO.N,Net-(R4-Pad2)*%
X131675000Y-87741116D02*
X131675000Y-88258884D01*
X132050000Y-88633884D02*
X132050000Y-90950000D01*
X131675000Y-88258884D02*
X132050000Y-88633884D01*
X131900000Y-87516116D02*
X131675000Y-87741116D01*
X132050000Y-90950000D02*
X129100000Y-93900000D01*
X131900000Y-84100000D02*
X131900000Y-87516116D01*
%TO.N,/+24V*%
X143900000Y-90425000D02*
X141525000Y-90425000D01*
%TO.N,/MISO*%
X138325000Y-91911396D02*
X140400000Y-93986396D01*
X135300000Y-87350000D02*
X135813604Y-87350000D01*
X140400000Y-93986396D02*
X140400000Y-95000000D01*
X138325000Y-89861396D02*
X138325000Y-91911396D01*
X135813604Y-87350000D02*
X138325000Y-89861396D01*
%TO.N,/SCK*%
X132500000Y-88200000D02*
X132500000Y-91516116D01*
X132500000Y-91516116D02*
X132725000Y-91741116D01*
X132725000Y-91741116D02*
X132725000Y-96725000D01*
X132300000Y-88000000D02*
X132500000Y-88200000D01*
%TD*%
%TA.AperFunction,Conductor*%
%TO.N,/GND*%
G36*
X127231180Y-82528502D02*
G01*
X127277673Y-82582158D01*
X127287777Y-82652432D01*
X127258283Y-82717012D01*
X127249995Y-82724734D01*
X127250269Y-82725008D01*
X127243919Y-82731358D01*
X127236739Y-82736739D01*
X127149385Y-82853295D01*
X127098255Y-82989684D01*
X127091500Y-83051866D01*
X127091500Y-85148134D01*
X127098255Y-85210316D01*
X127149385Y-85346705D01*
X127236739Y-85463261D01*
X127353295Y-85550615D01*
X127361703Y-85553767D01*
X127361707Y-85553769D01*
X127384731Y-85562401D01*
X127441495Y-85605043D01*
X127466194Y-85671605D01*
X127466500Y-85680382D01*
X127466500Y-85685406D01*
X127446498Y-85753527D01*
X127429595Y-85774501D01*
X126338780Y-86865315D01*
X126276468Y-86899341D01*
X126205652Y-86894276D01*
X126148859Y-86851785D01*
X126068286Y-86744277D01*
X126055724Y-86731715D01*
X125953649Y-86655214D01*
X125938054Y-86646676D01*
X125817606Y-86601522D01*
X125802351Y-86597895D01*
X125751486Y-86592369D01*
X125744672Y-86592000D01*
X125522115Y-86592000D01*
X125506876Y-86596475D01*
X125505671Y-86597865D01*
X125504000Y-86605548D01*
X125504000Y-87728000D01*
X125483998Y-87796121D01*
X125430342Y-87842614D01*
X125378000Y-87854000D01*
X124310116Y-87854000D01*
X124294877Y-87858475D01*
X124293672Y-87859865D01*
X124292001Y-87867548D01*
X124292001Y-88144669D01*
X124292371Y-88151490D01*
X124297895Y-88202352D01*
X124301521Y-88217604D01*
X124346679Y-88338061D01*
X124347174Y-88338966D01*
X124347393Y-88339966D01*
X124349828Y-88346462D01*
X124348890Y-88346814D01*
X124362343Y-88408323D01*
X124349162Y-88453212D01*
X124349385Y-88453295D01*
X124348244Y-88456337D01*
X124348242Y-88456344D01*
X124346236Y-88461696D01*
X124346234Y-88461699D01*
X124328620Y-88508685D01*
X124298255Y-88589684D01*
X124291500Y-88651866D01*
X124291500Y-89674443D01*
X124271498Y-89742564D01*
X124217842Y-89789057D01*
X124178671Y-89799753D01*
X124159953Y-89801721D01*
X124125288Y-89805364D01*
X123953579Y-89863818D01*
X123947575Y-89867512D01*
X123805095Y-89955166D01*
X123805092Y-89955168D01*
X123799088Y-89958862D01*
X123794053Y-89963793D01*
X123794050Y-89963795D01*
X123674525Y-90080843D01*
X123669493Y-90085771D01*
X123571235Y-90238238D01*
X123509197Y-90408685D01*
X123486463Y-90588640D01*
X123504163Y-90769160D01*
X123561418Y-90941273D01*
X123565065Y-90947295D01*
X123565066Y-90947297D01*
X123645703Y-91080445D01*
X123655380Y-91096424D01*
X123660269Y-91101487D01*
X123660270Y-91101488D01*
X123737121Y-91181068D01*
X123781382Y-91226902D01*
X123933159Y-91326222D01*
X123939763Y-91328678D01*
X123939765Y-91328679D01*
X124096558Y-91386990D01*
X124096560Y-91386990D01*
X124103168Y-91389448D01*
X124174291Y-91398938D01*
X124275980Y-91412507D01*
X124275984Y-91412507D01*
X124282961Y-91413438D01*
X124289972Y-91412800D01*
X124289976Y-91412800D01*
X124432459Y-91399832D01*
X124463600Y-91396998D01*
X124470302Y-91394820D01*
X124470304Y-91394820D01*
X124629409Y-91343124D01*
X124629412Y-91343123D01*
X124636108Y-91340947D01*
X124786540Y-91251271D01*
X124851058Y-91233500D01*
X125371233Y-91233500D01*
X125382416Y-91234027D01*
X125389909Y-91235702D01*
X125397835Y-91235453D01*
X125397836Y-91235453D01*
X125457986Y-91233562D01*
X125461945Y-91233500D01*
X125465500Y-91233500D01*
X125533621Y-91253502D01*
X125580114Y-91307158D01*
X125591500Y-91359500D01*
X125591500Y-91840500D01*
X125571498Y-91908621D01*
X125517842Y-91955114D01*
X125465500Y-91966500D01*
X124847338Y-91966500D01*
X124779824Y-91946885D01*
X124718117Y-91907725D01*
X124656666Y-91868727D01*
X124613409Y-91853324D01*
X124492425Y-91810243D01*
X124492420Y-91810242D01*
X124485790Y-91807881D01*
X124478802Y-91807048D01*
X124478799Y-91807047D01*
X124355698Y-91792368D01*
X124305680Y-91786404D01*
X124298677Y-91787140D01*
X124298676Y-91787140D01*
X124132288Y-91804628D01*
X124132286Y-91804629D01*
X124125288Y-91805364D01*
X123953579Y-91863818D01*
X123897239Y-91898479D01*
X123805095Y-91955166D01*
X123805092Y-91955168D01*
X123799088Y-91958862D01*
X123794053Y-91963793D01*
X123794050Y-91963795D01*
X123686763Y-92068859D01*
X123669493Y-92085771D01*
X123571235Y-92238238D01*
X123568826Y-92244858D01*
X123568824Y-92244861D01*
X123511606Y-92402066D01*
X123509197Y-92408685D01*
X123486463Y-92588640D01*
X123504163Y-92769160D01*
X123561418Y-92941273D01*
X123565065Y-92947295D01*
X123565066Y-92947297D01*
X123650034Y-93087596D01*
X123655380Y-93096424D01*
X123781382Y-93226902D01*
X123933159Y-93326222D01*
X123939763Y-93328678D01*
X123939765Y-93328679D01*
X124096558Y-93386990D01*
X124096560Y-93386990D01*
X124103168Y-93389448D01*
X124186995Y-93400633D01*
X124275980Y-93412507D01*
X124275984Y-93412507D01*
X124282961Y-93413438D01*
X124289972Y-93412800D01*
X124289976Y-93412800D01*
X124432459Y-93399832D01*
X124463600Y-93396998D01*
X124470302Y-93394820D01*
X124470304Y-93394820D01*
X124629409Y-93343124D01*
X124629412Y-93343123D01*
X124636108Y-93340947D01*
X124786540Y-93251271D01*
X124851058Y-93233500D01*
X125477452Y-93233500D01*
X125545573Y-93253502D01*
X125592066Y-93307158D01*
X125602170Y-93377432D01*
X125600035Y-93388645D01*
X125597895Y-93397646D01*
X125592369Y-93448514D01*
X125592000Y-93455328D01*
X125592000Y-93727885D01*
X125596475Y-93743124D01*
X125597865Y-93744329D01*
X125605548Y-93746000D01*
X127228000Y-93746000D01*
X127296121Y-93766002D01*
X127342614Y-93819658D01*
X127354000Y-93872000D01*
X127354000Y-94989884D01*
X127358475Y-95005123D01*
X127359865Y-95006328D01*
X127367548Y-95007999D01*
X128144669Y-95007999D01*
X128151490Y-95007629D01*
X128202352Y-95002105D01*
X128217604Y-94998479D01*
X128338054Y-94953324D01*
X128353649Y-94944786D01*
X128455724Y-94868285D01*
X128468285Y-94855724D01*
X128544786Y-94753649D01*
X128553324Y-94738054D01*
X128568146Y-94698517D01*
X128610788Y-94641753D01*
X128677350Y-94617053D01*
X128732436Y-94628167D01*
X128733159Y-94626222D01*
X128896558Y-94686990D01*
X128896560Y-94686990D01*
X128903168Y-94689448D01*
X128971136Y-94698517D01*
X129075980Y-94712507D01*
X129075984Y-94712507D01*
X129082961Y-94713438D01*
X129089972Y-94712800D01*
X129089976Y-94712800D01*
X129232459Y-94699832D01*
X129263600Y-94696998D01*
X129270302Y-94694820D01*
X129270304Y-94694820D01*
X129429409Y-94643124D01*
X129429412Y-94643123D01*
X129436108Y-94640947D01*
X129591912Y-94548069D01*
X129723266Y-94422982D01*
X129823643Y-94271902D01*
X129888055Y-94102338D01*
X129890641Y-94083942D01*
X129897639Y-94034145D01*
X129926927Y-93969471D01*
X129933318Y-93962586D01*
X131226371Y-92669534D01*
X131288683Y-92635508D01*
X131359499Y-92640573D01*
X131416334Y-92683120D01*
X131423242Y-92693358D01*
X131448276Y-92734694D01*
X131466500Y-92799965D01*
X131466500Y-93035406D01*
X131446498Y-93103527D01*
X131429595Y-93124501D01*
X129228459Y-95325636D01*
X129166147Y-95359662D01*
X129109951Y-95359060D01*
X129057104Y-95346373D01*
X128891524Y-95306620D01*
X128891518Y-95306619D01*
X128886711Y-95305465D01*
X128650000Y-95286835D01*
X128413289Y-95305465D01*
X128408482Y-95306619D01*
X128408476Y-95306620D01*
X128262609Y-95341640D01*
X128182406Y-95360895D01*
X128177835Y-95362788D01*
X128177833Y-95362789D01*
X127967611Y-95449865D01*
X127967607Y-95449867D01*
X127963037Y-95451760D01*
X127958817Y-95454346D01*
X127764798Y-95573241D01*
X127764792Y-95573245D01*
X127760584Y-95575824D01*
X127580031Y-95730031D01*
X127425824Y-95910584D01*
X127423245Y-95914792D01*
X127423241Y-95914798D01*
X127347055Y-96039122D01*
X127301760Y-96113037D01*
X127299867Y-96117607D01*
X127299865Y-96117611D01*
X127230701Y-96284590D01*
X127210895Y-96332406D01*
X127195722Y-96395607D01*
X127157481Y-96554893D01*
X127155465Y-96563289D01*
X127136835Y-96800000D01*
X127155465Y-97036711D01*
X127156619Y-97041518D01*
X127156620Y-97041524D01*
X127182341Y-97148659D01*
X127210895Y-97267594D01*
X127301760Y-97486963D01*
X127304346Y-97491183D01*
X127423241Y-97685202D01*
X127423245Y-97685208D01*
X127425824Y-97689416D01*
X127449965Y-97717681D01*
X127574111Y-97863037D01*
X127580031Y-97869969D01*
X127760584Y-98024176D01*
X127764792Y-98026755D01*
X127764798Y-98026759D01*
X127878259Y-98096288D01*
X127963037Y-98148240D01*
X127967607Y-98150133D01*
X127967611Y-98150135D01*
X128177833Y-98237211D01*
X128182406Y-98239105D01*
X128231636Y-98250924D01*
X128408476Y-98293380D01*
X128408482Y-98293381D01*
X128413289Y-98294535D01*
X128650000Y-98313165D01*
X128886711Y-98294535D01*
X128891518Y-98293381D01*
X128891524Y-98293380D01*
X129068364Y-98250924D01*
X129117594Y-98239105D01*
X129122167Y-98237211D01*
X129332389Y-98150135D01*
X129332393Y-98150133D01*
X129336963Y-98148240D01*
X129421741Y-98096288D01*
X129535202Y-98026759D01*
X129535208Y-98026755D01*
X129539416Y-98024176D01*
X129719969Y-97869969D01*
X129725890Y-97863037D01*
X129850035Y-97717681D01*
X129874176Y-97689416D01*
X129876755Y-97685208D01*
X129876759Y-97685202D01*
X129995654Y-97491183D01*
X129998240Y-97486963D01*
X130089105Y-97267594D01*
X130117659Y-97148659D01*
X130143380Y-97041524D01*
X130143381Y-97041518D01*
X130144535Y-97036711D01*
X130163165Y-96800000D01*
X130144535Y-96563289D01*
X130142520Y-96554893D01*
X130090940Y-96340049D01*
X130094487Y-96269141D01*
X130124364Y-96221540D01*
X131876405Y-94469500D01*
X131938717Y-94435474D01*
X132009533Y-94440539D01*
X132066368Y-94483086D01*
X132091179Y-94549606D01*
X132091500Y-94558595D01*
X132091500Y-95314358D01*
X132071498Y-95382479D01*
X132013719Y-95430767D01*
X131963037Y-95451760D01*
X131958817Y-95454346D01*
X131764798Y-95573241D01*
X131764792Y-95573245D01*
X131760584Y-95575824D01*
X131580031Y-95730031D01*
X131425824Y-95910584D01*
X131423245Y-95914792D01*
X131423241Y-95914798D01*
X131347055Y-96039122D01*
X131301760Y-96113037D01*
X131299867Y-96117607D01*
X131299865Y-96117611D01*
X131230701Y-96284590D01*
X131210895Y-96332406D01*
X131195722Y-96395607D01*
X131157481Y-96554893D01*
X131155465Y-96563289D01*
X131136835Y-96800000D01*
X131155465Y-97036711D01*
X131156619Y-97041518D01*
X131156620Y-97041524D01*
X131182341Y-97148659D01*
X131210895Y-97267594D01*
X131301760Y-97486963D01*
X131304346Y-97491183D01*
X131423241Y-97685202D01*
X131423245Y-97685208D01*
X131425824Y-97689416D01*
X131449965Y-97717681D01*
X131574111Y-97863037D01*
X131580031Y-97869969D01*
X131760584Y-98024176D01*
X131764792Y-98026755D01*
X131764798Y-98026759D01*
X131897481Y-98108067D01*
X131945112Y-98160715D01*
X131956719Y-98230757D01*
X131928616Y-98295954D01*
X131869725Y-98335608D01*
X131831646Y-98341500D01*
X130901966Y-98341500D01*
X130859699Y-98334199D01*
X130792424Y-98310243D01*
X130792422Y-98310242D01*
X130785790Y-98307881D01*
X130778802Y-98307048D01*
X130778799Y-98307047D01*
X130655698Y-98292368D01*
X130605680Y-98286404D01*
X130598677Y-98287140D01*
X130598676Y-98287140D01*
X130432288Y-98304628D01*
X130432286Y-98304629D01*
X130425288Y-98305364D01*
X130253579Y-98363818D01*
X130247575Y-98367512D01*
X130105095Y-98455166D01*
X130105092Y-98455168D01*
X130099088Y-98458862D01*
X130094053Y-98463793D01*
X130094050Y-98463795D01*
X129997786Y-98558064D01*
X129969493Y-98585771D01*
X129871235Y-98738238D01*
X129868826Y-98744858D01*
X129868824Y-98744861D01*
X129815552Y-98891224D01*
X129809197Y-98908685D01*
X129786463Y-99088640D01*
X129804163Y-99269160D01*
X129861418Y-99441273D01*
X129865065Y-99447295D01*
X129865066Y-99447297D01*
X129933938Y-99561018D01*
X129955380Y-99596424D01*
X129960269Y-99601487D01*
X129960270Y-99601488D01*
X129974490Y-99616213D01*
X130081382Y-99726902D01*
X130233159Y-99826222D01*
X130239763Y-99828678D01*
X130239765Y-99828679D01*
X130396558Y-99886990D01*
X130396560Y-99886990D01*
X130403168Y-99889448D01*
X130483262Y-99900135D01*
X130575980Y-99912507D01*
X130575984Y-99912507D01*
X130582961Y-99913438D01*
X130589972Y-99912800D01*
X130589976Y-99912800D01*
X130732459Y-99899832D01*
X130763600Y-99896998D01*
X130770302Y-99894820D01*
X130770304Y-99894820D01*
X130929409Y-99843124D01*
X130929412Y-99843123D01*
X130936108Y-99840947D01*
X130942157Y-99837341D01*
X130948574Y-99834430D01*
X130949408Y-99836268D01*
X131008572Y-99821044D01*
X131075979Y-99843331D01*
X131120636Y-99898524D01*
X131128365Y-99969099D01*
X131126841Y-99976387D01*
X131114358Y-100028381D01*
X131115063Y-100042469D01*
X131123944Y-100046000D01*
X132728000Y-100046000D01*
X132796121Y-100066002D01*
X132842614Y-100119658D01*
X132854000Y-100172000D01*
X132854000Y-100428000D01*
X132833998Y-100496121D01*
X132780342Y-100542614D01*
X132728000Y-100554000D01*
X131128244Y-100554000D01*
X131114713Y-100557973D01*
X131113353Y-100567431D01*
X131160218Y-100762634D01*
X131163264Y-100772008D01*
X131250313Y-100982163D01*
X131254795Y-100990958D01*
X131373643Y-101184899D01*
X131379443Y-101192883D01*
X131456982Y-101283669D01*
X131486013Y-101348459D01*
X131475408Y-101418659D01*
X131428533Y-101471981D01*
X131361171Y-101491500D01*
X124362818Y-101491500D01*
X124294697Y-101471498D01*
X124273723Y-101454595D01*
X121145405Y-98326278D01*
X121111379Y-98263966D01*
X121108500Y-98237183D01*
X121108500Y-94544669D01*
X125592001Y-94544669D01*
X125592371Y-94551490D01*
X125597895Y-94602352D01*
X125601521Y-94617604D01*
X125646676Y-94738054D01*
X125655214Y-94753649D01*
X125731715Y-94855724D01*
X125744276Y-94868285D01*
X125846351Y-94944786D01*
X125861946Y-94953324D01*
X125982394Y-94998478D01*
X125997649Y-95002105D01*
X126048514Y-95007631D01*
X126055328Y-95008000D01*
X126827885Y-95008000D01*
X126843124Y-95003525D01*
X126844329Y-95002135D01*
X126846000Y-94994452D01*
X126846000Y-94272115D01*
X126841525Y-94256876D01*
X126840135Y-94255671D01*
X126832452Y-94254000D01*
X125610116Y-94254000D01*
X125594877Y-94258475D01*
X125593672Y-94259865D01*
X125592001Y-94267548D01*
X125592001Y-94544669D01*
X121108500Y-94544669D01*
X121108500Y-87327885D01*
X124292000Y-87327885D01*
X124296475Y-87343124D01*
X124297865Y-87344329D01*
X124305548Y-87346000D01*
X124977885Y-87346000D01*
X124993124Y-87341525D01*
X124994329Y-87340135D01*
X124996000Y-87332452D01*
X124996000Y-86610116D01*
X124991525Y-86594877D01*
X124990135Y-86593672D01*
X124982452Y-86592001D01*
X124755331Y-86592001D01*
X124748510Y-86592371D01*
X124697648Y-86597895D01*
X124682396Y-86601521D01*
X124561946Y-86646676D01*
X124546351Y-86655214D01*
X124444276Y-86731715D01*
X124431715Y-86744276D01*
X124355214Y-86846351D01*
X124346676Y-86861946D01*
X124301522Y-86982394D01*
X124297895Y-86997649D01*
X124292369Y-87048514D01*
X124292000Y-87055328D01*
X124292000Y-87327885D01*
X121108500Y-87327885D01*
X121108500Y-85762817D01*
X121128502Y-85694696D01*
X121145405Y-85673722D01*
X122700013Y-84119115D01*
X122762325Y-84085089D01*
X122833141Y-84090154D01*
X122889976Y-84132701D01*
X122914787Y-84199221D01*
X122911626Y-84237626D01*
X122906621Y-84258471D01*
X122906620Y-84258476D01*
X122905465Y-84263289D01*
X122886835Y-84500000D01*
X122905465Y-84736711D01*
X122906619Y-84741518D01*
X122906620Y-84741524D01*
X122930376Y-84840473D01*
X122960895Y-84967594D01*
X122962788Y-84972165D01*
X122962789Y-84972167D01*
X123043183Y-85166255D01*
X123051760Y-85186963D01*
X123054346Y-85191183D01*
X123173241Y-85385202D01*
X123173245Y-85385208D01*
X123175824Y-85389416D01*
X123330031Y-85569969D01*
X123510584Y-85724176D01*
X123514792Y-85726755D01*
X123514798Y-85726759D01*
X123708817Y-85845654D01*
X123713037Y-85848240D01*
X123717607Y-85850133D01*
X123717611Y-85850135D01*
X123908693Y-85929283D01*
X123932406Y-85939105D01*
X123954116Y-85944317D01*
X124158476Y-85993380D01*
X124158482Y-85993381D01*
X124163289Y-85994535D01*
X124400000Y-86013165D01*
X124636711Y-85994535D01*
X124641518Y-85993381D01*
X124641524Y-85993380D01*
X124845884Y-85944317D01*
X124867594Y-85939105D01*
X124891307Y-85929283D01*
X125082389Y-85850135D01*
X125082393Y-85850133D01*
X125086963Y-85848240D01*
X125091183Y-85845654D01*
X125285202Y-85726759D01*
X125285208Y-85726755D01*
X125289416Y-85724176D01*
X125469969Y-85569969D01*
X125624176Y-85389416D01*
X125626755Y-85385208D01*
X125626759Y-85385202D01*
X125745654Y-85191183D01*
X125748240Y-85186963D01*
X125756818Y-85166255D01*
X125837211Y-84972167D01*
X125837212Y-84972165D01*
X125839105Y-84967594D01*
X125869624Y-84840473D01*
X125893380Y-84741524D01*
X125893381Y-84741518D01*
X125894535Y-84736711D01*
X125913165Y-84500000D01*
X125894535Y-84263289D01*
X125893379Y-84258471D01*
X125840260Y-84037218D01*
X125839105Y-84032406D01*
X125748240Y-83813037D01*
X125678338Y-83698968D01*
X125626759Y-83614798D01*
X125626755Y-83614792D01*
X125624176Y-83610584D01*
X125469969Y-83430031D01*
X125289416Y-83275824D01*
X125285208Y-83273245D01*
X125285202Y-83273241D01*
X125091183Y-83154346D01*
X125086963Y-83151760D01*
X125082393Y-83149867D01*
X125082389Y-83149865D01*
X124872167Y-83062789D01*
X124872165Y-83062788D01*
X124867594Y-83060895D01*
X124787391Y-83041640D01*
X124641524Y-83006620D01*
X124641518Y-83006619D01*
X124636711Y-83005465D01*
X124400000Y-82986835D01*
X124163289Y-83005465D01*
X124158471Y-83006622D01*
X124158469Y-83006622D01*
X124137623Y-83011626D01*
X124066715Y-83008078D01*
X124008982Y-82966758D01*
X123982753Y-82900784D01*
X123996356Y-82831103D01*
X124019114Y-82800013D01*
X124273724Y-82545404D01*
X124336036Y-82511379D01*
X124362819Y-82508500D01*
X127163059Y-82508500D01*
X127231180Y-82528502D01*
G37*
%TD.AperFunction*%
%TA.AperFunction,Conductor*%
G36*
X134238986Y-100549444D02*
G01*
X134281530Y-100577434D01*
X134871343Y-101167247D01*
X134878887Y-101175537D01*
X134883000Y-101182018D01*
X134888777Y-101187443D01*
X134932667Y-101228658D01*
X134935509Y-101231413D01*
X134955230Y-101251134D01*
X134958425Y-101253612D01*
X134967448Y-101261319D01*
X134980580Y-101273651D01*
X135016545Y-101334864D01*
X135013706Y-101405804D01*
X134972965Y-101463947D01*
X134907257Y-101490835D01*
X134894326Y-101491500D01*
X133838829Y-101491500D01*
X133770708Y-101471498D01*
X133724215Y-101417842D01*
X133714111Y-101347568D01*
X133743018Y-101283669D01*
X133820557Y-101192883D01*
X133826357Y-101184899D01*
X133945205Y-100990958D01*
X133949687Y-100982163D01*
X134036734Y-100772012D01*
X134039783Y-100762627D01*
X134069916Y-100637115D01*
X134105268Y-100575546D01*
X134168295Y-100542863D01*
X134238986Y-100549444D01*
G37*
%TD.AperFunction*%
%TA.AperFunction,Conductor*%
G36*
X142717012Y-91105963D02*
G01*
X142741933Y-91135352D01*
X142795188Y-91222256D01*
X142799987Y-91230088D01*
X142946250Y-91398938D01*
X143118126Y-91541632D01*
X143191955Y-91584774D01*
X143240679Y-91636412D01*
X143253750Y-91706195D01*
X143227019Y-91771967D01*
X143186562Y-91805327D01*
X143178457Y-91809546D01*
X143169738Y-91815036D01*
X142999433Y-91942905D01*
X142991726Y-91949748D01*
X142844590Y-92103717D01*
X142838104Y-92111727D01*
X142718098Y-92287649D01*
X142713000Y-92296623D01*
X142623338Y-92489783D01*
X142619775Y-92499470D01*
X142564389Y-92699183D01*
X142565912Y-92707607D01*
X142578292Y-92711000D01*
X144028000Y-92711000D01*
X144096121Y-92731002D01*
X144142614Y-92784658D01*
X144154000Y-92837000D01*
X144154000Y-94283517D01*
X144158064Y-94297359D01*
X144171478Y-94299393D01*
X144178184Y-94298534D01*
X144188262Y-94296392D01*
X144392255Y-94235191D01*
X144401842Y-94231433D01*
X144593095Y-94137739D01*
X144601945Y-94132464D01*
X144775328Y-94008792D01*
X144783200Y-94002139D01*
X144876560Y-93909103D01*
X144938931Y-93875186D01*
X145009738Y-93880374D01*
X145066499Y-93923020D01*
X145091194Y-93989583D01*
X145091500Y-93998353D01*
X145091500Y-98237182D01*
X145071498Y-98305303D01*
X145054595Y-98326277D01*
X141926278Y-101454595D01*
X141863966Y-101488621D01*
X141837183Y-101491500D01*
X138658594Y-101491500D01*
X138590473Y-101471498D01*
X138543980Y-101417842D01*
X138533876Y-101347568D01*
X138563370Y-101282988D01*
X138569499Y-101276405D01*
X138580683Y-101265221D01*
X138595717Y-101252380D01*
X138597432Y-101251134D01*
X138612107Y-101240472D01*
X138640298Y-101206395D01*
X138648288Y-101197616D01*
X139821540Y-100024364D01*
X139883852Y-99990338D01*
X139940049Y-99990940D01*
X140158476Y-100043380D01*
X140158482Y-100043381D01*
X140163289Y-100044535D01*
X140400000Y-100063165D01*
X140636711Y-100044535D01*
X140641518Y-100043381D01*
X140641524Y-100043380D01*
X140801145Y-100005058D01*
X140867594Y-99989105D01*
X140872167Y-99987211D01*
X141082389Y-99900135D01*
X141082393Y-99900133D01*
X141086963Y-99898240D01*
X141176904Y-99843124D01*
X141285202Y-99776759D01*
X141285208Y-99776755D01*
X141289416Y-99774176D01*
X141469969Y-99619969D01*
X141479765Y-99608500D01*
X141555568Y-99519745D01*
X141624176Y-99439416D01*
X141626755Y-99435208D01*
X141626759Y-99435202D01*
X141745654Y-99241183D01*
X141748240Y-99236963D01*
X141752294Y-99227177D01*
X141837211Y-99022167D01*
X141837212Y-99022165D01*
X141839105Y-99017594D01*
X141867369Y-98899865D01*
X141893380Y-98791524D01*
X141893381Y-98791518D01*
X141894535Y-98786711D01*
X141913165Y-98550000D01*
X141894535Y-98313289D01*
X141893178Y-98307633D01*
X141854289Y-98145654D01*
X141839105Y-98082406D01*
X141816553Y-98027960D01*
X141750134Y-97867609D01*
X141750133Y-97867607D01*
X141748240Y-97863037D01*
X141737803Y-97846005D01*
X141719266Y-97777472D01*
X141740724Y-97709796D01*
X141793760Y-97667121D01*
X141793301Y-97666287D01*
X141798020Y-97663693D01*
X141798855Y-97663021D01*
X141800239Y-97662473D01*
X141807617Y-97659552D01*
X141843387Y-97633564D01*
X141853307Y-97627048D01*
X141884535Y-97608580D01*
X141884538Y-97608578D01*
X141891362Y-97604542D01*
X141905683Y-97590221D01*
X141920717Y-97577380D01*
X141930694Y-97570131D01*
X141937107Y-97565472D01*
X141942158Y-97559367D01*
X141942163Y-97559362D01*
X141965299Y-97531396D01*
X141973287Y-97522618D01*
X142692253Y-96803652D01*
X142700539Y-96796112D01*
X142707018Y-96792000D01*
X142753644Y-96742348D01*
X142756398Y-96739507D01*
X142776135Y-96719770D01*
X142778615Y-96716573D01*
X142786320Y-96707551D01*
X142793346Y-96700069D01*
X142816586Y-96675321D01*
X142820405Y-96668375D01*
X142820407Y-96668372D01*
X142826348Y-96657566D01*
X142837199Y-96641047D01*
X142844758Y-96631301D01*
X142849614Y-96625041D01*
X142852759Y-96617772D01*
X142852762Y-96617768D01*
X142867174Y-96584463D01*
X142872391Y-96573813D01*
X142893695Y-96535060D01*
X142898733Y-96515437D01*
X142905137Y-96496734D01*
X142910033Y-96485420D01*
X142910033Y-96485419D01*
X142913181Y-96478145D01*
X142914420Y-96470322D01*
X142914423Y-96470312D01*
X142920099Y-96434476D01*
X142922505Y-96422856D01*
X142931528Y-96387711D01*
X142931528Y-96387710D01*
X142933500Y-96380030D01*
X142933500Y-96359776D01*
X142935051Y-96340065D01*
X142936980Y-96327886D01*
X142938220Y-96320057D01*
X142934059Y-96276038D01*
X142933500Y-96264181D01*
X142933500Y-94192730D01*
X142953502Y-94124609D01*
X143007158Y-94078116D01*
X143077432Y-94068012D01*
X143123070Y-94083942D01*
X143306756Y-94191279D01*
X143316042Y-94195729D01*
X143515001Y-94271703D01*
X143524899Y-94274579D01*
X143628250Y-94295606D01*
X143642299Y-94294410D01*
X143646000Y-94284065D01*
X143646000Y-93237115D01*
X143641525Y-93221876D01*
X143640135Y-93220671D01*
X143632452Y-93219000D01*
X142610907Y-93219000D01*
X142542786Y-93198998D01*
X142521811Y-93182095D01*
X142375123Y-93035406D01*
X142104039Y-92764322D01*
X142070014Y-92702010D01*
X142067920Y-92689272D01*
X142063801Y-92652552D01*
X142063016Y-92645552D01*
X142012145Y-92499470D01*
X142005683Y-92480913D01*
X142005681Y-92480910D01*
X142003364Y-92474255D01*
X141977730Y-92433231D01*
X141910978Y-92326405D01*
X141907245Y-92320431D01*
X141819739Y-92232312D01*
X141784397Y-92196722D01*
X141784393Y-92196719D01*
X141779434Y-92191725D01*
X141768316Y-92184669D01*
X141699323Y-92140885D01*
X141652524Y-92087496D01*
X141642019Y-92017281D01*
X141671143Y-91952533D01*
X141730649Y-91913809D01*
X141766837Y-91908500D01*
X142048134Y-91908500D01*
X142110316Y-91901745D01*
X142246705Y-91850615D01*
X142363261Y-91763261D01*
X142450615Y-91646705D01*
X142501745Y-91510316D01*
X142508500Y-91448134D01*
X142508500Y-91201187D01*
X142528502Y-91133066D01*
X142582158Y-91086573D01*
X142652432Y-91076469D01*
X142717012Y-91105963D01*
G37*
%TD.AperFunction*%
%TA.AperFunction,Conductor*%
G36*
X136944032Y-98250924D02*
G01*
X136989095Y-98279885D01*
X138120290Y-99411080D01*
X138132670Y-99417840D01*
X138149556Y-99405199D01*
X138216076Y-99380388D01*
X138285450Y-99395479D01*
X138294058Y-99400635D01*
X138322878Y-99419494D01*
X138333159Y-99426222D01*
X138364028Y-99437702D01*
X138420904Y-99480196D01*
X138445777Y-99546693D01*
X138430750Y-99616081D01*
X138409201Y-99644894D01*
X137949500Y-100104595D01*
X137887188Y-100138621D01*
X137860405Y-100141500D01*
X137631819Y-100141500D01*
X137563698Y-100121498D01*
X137517205Y-100067842D01*
X137507101Y-99997568D01*
X137536595Y-99932988D01*
X137578260Y-99902943D01*
X137577747Y-99901937D01*
X137590958Y-99895205D01*
X137758445Y-99792568D01*
X137767907Y-99782110D01*
X137764124Y-99773334D01*
X136629885Y-98639095D01*
X136595859Y-98576783D01*
X136600924Y-98505968D01*
X136629885Y-98460905D01*
X136810905Y-98279885D01*
X136873217Y-98245859D01*
X136944032Y-98250924D01*
G37*
%TD.AperFunction*%
%TA.AperFunction,Conductor*%
G36*
X140593675Y-91734500D02*
G01*
X140635171Y-91761168D01*
X140636739Y-91763261D01*
X140753295Y-91850615D01*
X140761704Y-91853767D01*
X140761705Y-91853768D01*
X140859173Y-91890307D01*
X140915938Y-91932948D01*
X140940638Y-91999510D01*
X140925431Y-92068859D01*
X140880967Y-92115606D01*
X140768707Y-92184669D01*
X140763672Y-92189600D01*
X140763669Y-92189602D01*
X140644144Y-92306650D01*
X140639112Y-92311578D01*
X140633407Y-92320431D01*
X140574142Y-92412392D01*
X140520427Y-92458816D01*
X140450141Y-92468831D01*
X140385597Y-92439255D01*
X140379136Y-92433231D01*
X140068485Y-92122580D01*
X140034459Y-92060268D01*
X140039524Y-91989453D01*
X140082071Y-91932617D01*
X140148155Y-91908616D01*
X140148088Y-91907999D01*
X140150606Y-91907725D01*
X140150759Y-91907670D01*
X140151474Y-91907631D01*
X140202352Y-91902105D01*
X140217604Y-91898479D01*
X140338054Y-91853324D01*
X140353649Y-91844786D01*
X140455724Y-91768285D01*
X140460548Y-91763461D01*
X140522860Y-91729435D01*
X140593675Y-91734500D01*
G37*
%TD.AperFunction*%
%TA.AperFunction,Conductor*%
G36*
X130424468Y-85670372D02*
G01*
X130779595Y-86025499D01*
X130813621Y-86087811D01*
X130816500Y-86114594D01*
X130816500Y-87014412D01*
X130796498Y-87082533D01*
X130782355Y-87100659D01*
X130771339Y-87112390D01*
X130768616Y-87115199D01*
X130748865Y-87134950D01*
X130746385Y-87138147D01*
X130738682Y-87147167D01*
X130708414Y-87179399D01*
X130704595Y-87186345D01*
X130704593Y-87186348D01*
X130698652Y-87197154D01*
X130687801Y-87213673D01*
X130675386Y-87229679D01*
X130672241Y-87236948D01*
X130672238Y-87236952D01*
X130657826Y-87270257D01*
X130652609Y-87280907D01*
X130631305Y-87319660D01*
X130629334Y-87327335D01*
X130629334Y-87327336D01*
X130626267Y-87339282D01*
X130619863Y-87357986D01*
X130611819Y-87376575D01*
X130610580Y-87384398D01*
X130610577Y-87384408D01*
X130604901Y-87420244D01*
X130602495Y-87431864D01*
X130591500Y-87474690D01*
X130591500Y-87494944D01*
X130589949Y-87514654D01*
X130586780Y-87534663D01*
X130587526Y-87542555D01*
X130590941Y-87578681D01*
X130591500Y-87590539D01*
X130591500Y-88319136D01*
X130571498Y-88387257D01*
X130517842Y-88433750D01*
X130478673Y-88444445D01*
X130405257Y-88452162D01*
X130335419Y-88439390D01*
X130283572Y-88390888D01*
X130266178Y-88322055D01*
X130274105Y-88282623D01*
X130298478Y-88217609D01*
X130302105Y-88202351D01*
X130307631Y-88151486D01*
X130308000Y-88144672D01*
X130308000Y-87872115D01*
X130303525Y-87856876D01*
X130302135Y-87855671D01*
X130294452Y-87854000D01*
X128410116Y-87854000D01*
X128394877Y-87858475D01*
X128393672Y-87859865D01*
X128392001Y-87867548D01*
X128392001Y-88144669D01*
X128392371Y-88151490D01*
X128397895Y-88202352D01*
X128401521Y-88217604D01*
X128446679Y-88338061D01*
X128447174Y-88338966D01*
X128447393Y-88339966D01*
X128449828Y-88346462D01*
X128448890Y-88346814D01*
X128462343Y-88408323D01*
X128449162Y-88453212D01*
X128449385Y-88453295D01*
X128448244Y-88456337D01*
X128448242Y-88456344D01*
X128446236Y-88461696D01*
X128446234Y-88461699D01*
X128428620Y-88508685D01*
X128398255Y-88589684D01*
X128391500Y-88651866D01*
X128391500Y-89748134D01*
X128398255Y-89810316D01*
X128449385Y-89946705D01*
X128536739Y-90063261D01*
X128653295Y-90150615D01*
X128789684Y-90201745D01*
X128851866Y-90208500D01*
X129848134Y-90208500D01*
X129910316Y-90201745D01*
X130046705Y-90150615D01*
X130163261Y-90063261D01*
X130168643Y-90056080D01*
X130173454Y-90051269D01*
X130235766Y-90017243D01*
X130306469Y-90022266D01*
X130346068Y-90036993D01*
X130346070Y-90036994D01*
X130352670Y-90039448D01*
X130359651Y-90040379D01*
X130359653Y-90040380D01*
X130525482Y-90062507D01*
X130525486Y-90062507D01*
X130532463Y-90063438D01*
X130539474Y-90062800D01*
X130539478Y-90062800D01*
X130681961Y-90049832D01*
X130713102Y-90046998D01*
X130719804Y-90044820D01*
X130719806Y-90044820D01*
X130801564Y-90018255D01*
X130872532Y-90016228D01*
X130933329Y-90052890D01*
X130964655Y-90116602D01*
X130966500Y-90138088D01*
X130966500Y-90435406D01*
X130946498Y-90503527D01*
X130929595Y-90524501D01*
X129524500Y-91929595D01*
X129462188Y-91963621D01*
X129435405Y-91966500D01*
X128734500Y-91966500D01*
X128666379Y-91946498D01*
X128619886Y-91892842D01*
X128608500Y-91840500D01*
X128608500Y-90911866D01*
X128601745Y-90849684D01*
X128550615Y-90713295D01*
X128463261Y-90596739D01*
X128346705Y-90509385D01*
X128210316Y-90458255D01*
X128148134Y-90451500D01*
X127859500Y-90451500D01*
X127791379Y-90431498D01*
X127744886Y-90377842D01*
X127733500Y-90325500D01*
X127733500Y-87950990D01*
X127753502Y-87882869D01*
X127770405Y-87861895D01*
X128258955Y-87373345D01*
X128321267Y-87339319D01*
X128374831Y-87339319D01*
X128405545Y-87346000D01*
X130289884Y-87346000D01*
X130305123Y-87341525D01*
X130306328Y-87340135D01*
X130307999Y-87332452D01*
X130307999Y-87055331D01*
X130307629Y-87048510D01*
X130302105Y-86997648D01*
X130298479Y-86982396D01*
X130253324Y-86861946D01*
X130244786Y-86846351D01*
X130168285Y-86744276D01*
X130155724Y-86731715D01*
X130053649Y-86655214D01*
X130038054Y-86646676D01*
X129917606Y-86601522D01*
X129897373Y-86596711D01*
X129835726Y-86561493D01*
X129802906Y-86498538D01*
X129809332Y-86427833D01*
X129852964Y-86371826D01*
X129861991Y-86365905D01*
X129891912Y-86348069D01*
X130023266Y-86222982D01*
X130123643Y-86071902D01*
X130173650Y-85940260D01*
X130185555Y-85908920D01*
X130185556Y-85908918D01*
X130188055Y-85902338D01*
X130190191Y-85887140D01*
X130210599Y-85741931D01*
X130239887Y-85677257D01*
X130299491Y-85638684D01*
X130370488Y-85638459D01*
X130424468Y-85670372D01*
G37*
%TD.AperFunction*%
%TA.AperFunction,Conductor*%
G36*
X135947831Y-88387048D02*
G01*
X135975874Y-88408174D01*
X137654595Y-90086895D01*
X137688621Y-90149207D01*
X137691500Y-90175990D01*
X137691500Y-90742561D01*
X137671498Y-90810682D01*
X137617842Y-90857175D01*
X137547568Y-90867279D01*
X137504472Y-90852110D01*
X137502249Y-90850386D01*
X137483529Y-90842285D01*
X137461671Y-90832826D01*
X137451021Y-90827609D01*
X137412268Y-90806305D01*
X137392645Y-90801267D01*
X137373942Y-90794863D01*
X137362628Y-90789967D01*
X137362627Y-90789967D01*
X137355353Y-90786819D01*
X137347530Y-90785580D01*
X137347520Y-90785577D01*
X137311684Y-90779901D01*
X137300064Y-90777495D01*
X137264919Y-90768472D01*
X137264918Y-90768472D01*
X137257238Y-90766500D01*
X137236984Y-90766500D01*
X137217273Y-90764949D01*
X137205094Y-90763020D01*
X137197265Y-90761780D01*
X137189373Y-90762526D01*
X137153247Y-90765941D01*
X137141389Y-90766500D01*
X136147338Y-90766500D01*
X136079824Y-90746885D01*
X136015571Y-90706109D01*
X135956666Y-90668727D01*
X135883332Y-90642614D01*
X135792425Y-90610243D01*
X135792420Y-90610242D01*
X135785790Y-90607881D01*
X135778804Y-90607048D01*
X135778800Y-90607047D01*
X135712689Y-90599164D01*
X135688013Y-90596222D01*
X135622741Y-90568295D01*
X135582928Y-90509511D01*
X135581216Y-90438536D01*
X135613904Y-90383464D01*
X135613635Y-90383238D01*
X135615014Y-90381594D01*
X135616043Y-90379861D01*
X135618163Y-90377842D01*
X135618165Y-90377840D01*
X135623266Y-90372982D01*
X135723643Y-90221902D01*
X135781862Y-90068642D01*
X135785555Y-90058920D01*
X135785556Y-90058918D01*
X135788055Y-90052338D01*
X135803460Y-89942727D01*
X135812748Y-89876639D01*
X135812748Y-89876636D01*
X135813299Y-89872717D01*
X135813616Y-89850000D01*
X135793397Y-89669745D01*
X135791080Y-89663091D01*
X135736064Y-89505106D01*
X135736062Y-89505103D01*
X135733745Y-89498448D01*
X135719035Y-89474907D01*
X135652646Y-89368661D01*
X135633500Y-89301892D01*
X135633500Y-88745620D01*
X135654552Y-88675893D01*
X135706609Y-88597540D01*
X135723643Y-88571902D01*
X135726146Y-88565314D01*
X135768991Y-88452525D01*
X135811880Y-88395947D01*
X135878549Y-88371538D01*
X135947831Y-88387048D01*
G37*
%TD.AperFunction*%
%TA.AperFunction,Conductor*%
G36*
X138817012Y-84813370D02*
G01*
X138823595Y-84819499D01*
X140579595Y-86575499D01*
X140613621Y-86637811D01*
X140616500Y-86664594D01*
X140616500Y-88153331D01*
X140596411Y-88221586D01*
X140525054Y-88332310D01*
X140525050Y-88332319D01*
X140521235Y-88338238D01*
X140518826Y-88344858D01*
X140518825Y-88344859D01*
X140465045Y-88492618D01*
X140459197Y-88508685D01*
X140436463Y-88688640D01*
X140440189Y-88726639D01*
X140446750Y-88793556D01*
X140433490Y-88863303D01*
X140384628Y-88914810D01*
X140315675Y-88931723D01*
X140277121Y-88923833D01*
X140217606Y-88901522D01*
X140202351Y-88897895D01*
X140151486Y-88892369D01*
X140144672Y-88892000D01*
X139872115Y-88892000D01*
X139856876Y-88896475D01*
X139855671Y-88897865D01*
X139854000Y-88905548D01*
X139854000Y-90528000D01*
X139833998Y-90596121D01*
X139780342Y-90642614D01*
X139728000Y-90654000D01*
X139534500Y-90654000D01*
X139466379Y-90633998D01*
X139419886Y-90580342D01*
X139408500Y-90528000D01*
X139408500Y-89753768D01*
X139409027Y-89742585D01*
X139410702Y-89735092D01*
X139408562Y-89667001D01*
X139408500Y-89663044D01*
X139408500Y-89635144D01*
X139407996Y-89631153D01*
X139407063Y-89619311D01*
X139405923Y-89583036D01*
X139405674Y-89575111D01*
X139403462Y-89567497D01*
X139403461Y-89567492D01*
X139400023Y-89555659D01*
X139396012Y-89536295D01*
X139394467Y-89524064D01*
X139393474Y-89516203D01*
X139390557Y-89508836D01*
X139390556Y-89508831D01*
X139377198Y-89475092D01*
X139373354Y-89463865D01*
X139363230Y-89429019D01*
X139363229Y-89429016D01*
X139361018Y-89421407D01*
X139356983Y-89414585D01*
X139356364Y-89413154D01*
X139346000Y-89363112D01*
X139346000Y-88910116D01*
X139341525Y-88894877D01*
X139340135Y-88893672D01*
X139332452Y-88892001D01*
X139055331Y-88892001D01*
X139048510Y-88892371D01*
X138997651Y-88897894D01*
X138982216Y-88901564D01*
X138911316Y-88897859D01*
X138863979Y-88868075D01*
X137723905Y-87728000D01*
X136370405Y-86374500D01*
X136336379Y-86312188D01*
X136333500Y-86285405D01*
X136333500Y-85680382D01*
X136353502Y-85612261D01*
X136407158Y-85565768D01*
X136415269Y-85562401D01*
X136438293Y-85553769D01*
X136438297Y-85553767D01*
X136446705Y-85550615D01*
X136563261Y-85463261D01*
X136564187Y-85462026D01*
X136623217Y-85429792D01*
X136694032Y-85434857D01*
X136735355Y-85461414D01*
X136736739Y-85463261D01*
X136853295Y-85550615D01*
X136989684Y-85601745D01*
X137051866Y-85608500D01*
X138148134Y-85608500D01*
X138210316Y-85601745D01*
X138346705Y-85550615D01*
X138463261Y-85463261D01*
X138550615Y-85346705D01*
X138601745Y-85210316D01*
X138608500Y-85148134D01*
X138608500Y-84908594D01*
X138628502Y-84840473D01*
X138682158Y-84793980D01*
X138752432Y-84783876D01*
X138817012Y-84813370D01*
G37*
%TD.AperFunction*%
%TD*%
M02*
