%TF.GenerationSoftware,KiCad,Pcbnew,(6.0.9)*%
%TF.CreationDate,2024-03-30T18:12:03+01:00*%
%TF.ProjectId,HBW-IO-4-FM_Platine1,4842572d-494f-42d3-942d-464d5f506c61,rev?*%
%TF.SameCoordinates,Original*%
%TF.FileFunction,Soldermask,Top*%
%TF.FilePolarity,Negative*%
%FSLAX46Y46*%
G04 Gerber Fmt 4.6, Leading zero omitted, Abs format (unit mm)*
G04 Created by KiCad (PCBNEW (6.0.9)) date 2024-03-30 18:12:03*
%MOMM*%
%LPD*%
G01*
G04 APERTURE LIST*
G04 Aperture macros list*
%AMRoundRect*
0 Rectangle with rounded corners*
0 $1 Rounding radius*
0 $2 $3 $4 $5 $6 $7 $8 $9 X,Y pos of 4 corners*
0 Add a 4 corners polygon primitive as box body*
4,1,4,$2,$3,$4,$5,$6,$7,$8,$9,$2,$3,0*
0 Add four circle primitives for the rounded corners*
1,1,$1+$1,$2,$3*
1,1,$1+$1,$4,$5*
1,1,$1+$1,$6,$7*
1,1,$1+$1,$8,$9*
0 Add four rect primitives between the rounded corners*
20,1,$1+$1,$2,$3,$4,$5,0*
20,1,$1+$1,$4,$5,$6,$7,0*
20,1,$1+$1,$6,$7,$8,$9,0*
20,1,$1+$1,$8,$9,$2,$3,0*%
%AMRotRect*
0 Rectangle, with rotation*
0 The origin of the aperture is its center*
0 $1 length*
0 $2 width*
0 $3 Rotation angle, in degrees counterclockwise*
0 Add horizontal line*
21,1,$1,$2,0,0,$3*%
G04 Aperture macros list end*
%ADD10O,2.000000X2.000000*%
%ADD11RoundRect,0.250000X-0.475000X0.337500X-0.475000X-0.337500X0.475000X-0.337500X0.475000X0.337500X0*%
%ADD12RoundRect,0.250000X0.350000X0.450000X-0.350000X0.450000X-0.350000X-0.450000X0.350000X-0.450000X0*%
%ADD13RoundRect,0.250000X0.450000X-0.350000X0.450000X0.350000X-0.450000X0.350000X-0.450000X-0.350000X0*%
%ADD14RoundRect,0.250000X0.337500X0.475000X-0.337500X0.475000X-0.337500X-0.475000X0.337500X-0.475000X0*%
%ADD15RoundRect,0.250000X-0.450000X0.350000X-0.450000X-0.350000X0.450000X-0.350000X0.450000X0.350000X0*%
%ADD16RotRect,0.400000X1.900000X135.000000*%
%ADD17RoundRect,0.250000X0.475000X-0.337500X0.475000X0.337500X-0.475000X0.337500X-0.475000X-0.337500X0*%
%ADD18O,1.700000X1.700000*%
%ADD19RoundRect,0.250000X-0.337500X-0.475000X0.337500X-0.475000X0.337500X0.475000X-0.337500X0.475000X0*%
%ADD20RoundRect,0.150000X0.825000X0.150000X-0.825000X0.150000X-0.825000X-0.150000X0.825000X-0.150000X0*%
%ADD21R,1.600000X0.550000*%
%ADD22R,0.550000X1.600000*%
G04 APERTURE END LIST*
D10*
%TO.C,ST2*%
X132600000Y-100300000D03*
%TD*%
D11*
%TO.C,C4*%
X133137500Y-95862500D03*
X133137500Y-97937500D03*
%TD*%
D12*
%TO.C,R2*%
X125400000Y-91400000D03*
X123400000Y-91400000D03*
%TD*%
D13*
%TO.C,R6*%
X144500000Y-97750000D03*
X144500000Y-95750000D03*
%TD*%
D12*
%TO.C,R3*%
X125400000Y-93400000D03*
X123400000Y-93400000D03*
%TD*%
D14*
%TO.C,C5*%
X137787500Y-101100000D03*
X135712500Y-101100000D03*
%TD*%
D15*
%TO.C,R4*%
X131137500Y-95900000D03*
X131137500Y-97900000D03*
%TD*%
D14*
%TO.C,C6*%
X125387500Y-95400000D03*
X123312500Y-95400000D03*
%TD*%
D11*
%TO.C,C1*%
X128100000Y-83062500D03*
X128100000Y-85137500D03*
%TD*%
D16*
%TO.C,Y1*%
X140848528Y-85248528D03*
X140000000Y-84400000D03*
X139151472Y-83551472D03*
%TD*%
D17*
%TO.C,C3*%
X140100000Y-89737500D03*
X140100000Y-87662500D03*
%TD*%
D12*
%TO.C,R1*%
X133100000Y-83100000D03*
X131100000Y-83100000D03*
%TD*%
D15*
%TO.C,R7*%
X140100000Y-91500000D03*
X140100000Y-93500000D03*
%TD*%
D18*
%TO.C,J1*%
X143900000Y-90425000D03*
X143900000Y-92965000D03*
%TD*%
D10*
%TO.C,ST1*%
X124400000Y-84500000D03*
%TD*%
D14*
%TO.C,C7*%
X125437500Y-89300000D03*
X123362500Y-89300000D03*
%TD*%
D19*
%TO.C,C10*%
X139500000Y-101100000D03*
X141575000Y-101100000D03*
%TD*%
%TO.C,C2*%
X123362500Y-87200000D03*
X125437500Y-87200000D03*
%TD*%
D11*
%TO.C,C8*%
X135100000Y-95900000D03*
X135100000Y-97975000D03*
%TD*%
D20*
%TO.C,IC2*%
X142275000Y-99305000D03*
X142275000Y-98035000D03*
X142275000Y-96765000D03*
X142275000Y-95495000D03*
X137325000Y-95495000D03*
X137325000Y-96765000D03*
X137325000Y-98035000D03*
X137325000Y-99305000D03*
%TD*%
D13*
%TO.C,R5*%
X127200000Y-95900000D03*
X127200000Y-93900000D03*
%TD*%
D21*
%TO.C,IC1*%
X137750000Y-92200000D03*
X137750000Y-91400000D03*
X137750000Y-90600000D03*
X137750000Y-89800000D03*
X137750000Y-89000000D03*
X137750000Y-88200000D03*
X137750000Y-87400000D03*
X137750000Y-86600000D03*
D22*
X136300000Y-85150000D03*
X135500000Y-85150000D03*
X134700000Y-85150000D03*
X133900000Y-85150000D03*
X133100000Y-85150000D03*
X132300000Y-85150000D03*
X131500000Y-85150000D03*
X130700000Y-85150000D03*
D21*
X129250000Y-86600000D03*
X129250000Y-87400000D03*
X129250000Y-88200000D03*
X129250000Y-89000000D03*
X129250000Y-89800000D03*
X129250000Y-90600000D03*
X129250000Y-91400000D03*
X129250000Y-92200000D03*
D22*
X130700000Y-93650000D03*
X131500000Y-93650000D03*
X132300000Y-93650000D03*
X133100000Y-93650000D03*
X133900000Y-93650000D03*
X134700000Y-93650000D03*
X135500000Y-93650000D03*
X136300000Y-93650000D03*
%TD*%
D11*
%TO.C,C9*%
X129137500Y-95862500D03*
X129137500Y-97937500D03*
%TD*%
M02*
